<svg xmlns="http://www.w3.org/2000/svg"><metadata>Copyright (C) 2013 by GitHub</metadata><defs><font id="octicons" horiz-adv-x="1024"><font-face ascent="832" descent="-192" font-family="octicons" font-stretch="normal" font-weight="400" units-per-em="1024"/><glyph d="M1006 32l-438 767c-11 20-33 32-56 32s-44-12-56-32l-438-767c-11-20-11-44 0-64s33-32 55-32h877c23 0 44 12 55 32s12 44 0 64z m-430 32h-128v128h128v-128z m0 192h-128v256h128v-256z" glyph-name="alert" horiz-adv-x="1024" unicode=""/><glyph d="M192 768c-106 0-192-86-192-192s86-192 192-192 192 86 192 192-86 192-192 192z m480-544l160 160h-448v-448l160 160 288-288 128 128-288 288z" glyph-name="alignment-align" horiz-adv-x="960" unicode=""/><glyph d="M384 256l128 128 288-288 160 160v-448h-448l160 160-288 288z m-192 128c-106 0-192 86-192 192s86 192 192 192 192-86 192-192-86-192-192-192z" glyph-name="alignment-aligned-to" horiz-adv-x="960" unicode=""/><glyph d="M512 640l-128-128-256 256-128-128 256-256-128-128 64-64 384 384-64 64z m128-384l128 128-64 64-384-384 64-64 128 128 256-256 128 128-256 256z" glyph-name="alignment-unalign" horiz-adv-x="896" unicode=""/><glyph d="M448 384v256h-256v-256h-192l320-384 320 384h-192z" glyph-name="arrow-down" horiz-adv-x="640" unicode=""/><glyph d="M384 448v192l-384-320 384-320v192h256v256h-256z" glyph-name="arrow-left" horiz-adv-x="640" unicode=""/><glyph d="M640 320l-384 320v-192h-256v-256h256v-192l384 320z" glyph-name="arrow-right" horiz-adv-x="640" unicode=""/><glyph d="M256 384v128h-128v-128h-128l192-256 192 256h-128z" glyph-name="arrow-small-down" horiz-adv-x="384" unicode=""/><glyph d="M256 384v128l-256-192 256-192v128h128v128h-128z" glyph-name="arrow-small-left" horiz-adv-x="384" unicode=""/><glyph d="M384 320l-256 192v-128h-128v-128h128v-128l256 192z" glyph-name="arrow-small-right" horiz-adv-x="384" unicode=""/><glyph d="M192 512l-192-256h128v-128h128v128h128l-192 256z" glyph-name="arrow-small-up" horiz-adv-x="384" unicode=""/><glyph d="M320 640l-320-384h192v-256h256v256h192l-320 384z" glyph-name="arrow-up" horiz-adv-x="640" unicode=""/><glyph d="M896 576h-192v128c0 71-158 128-352 128s-352-57-352-128v-768c0-71 158-128 352-128s352 57 352 128v128h192s64 0 64 64v384c0 64-64 64-64 64z m-704-576h-64v512h64v-512z m192-64h-64v512h64v-512z m192 64h-64v512h64v-512z m-224 640c-124 0-224 29-224 64s100 64 224 64 224-29 224-64-100-64-224-64z m480-448h-128v256h128v-256z" glyph-name="beer" horiz-adv-x="1024" unicode=""/><glyph d="M320 512h-128c-64 0-64-64-64-64h256s0 64-64 64z m0-128h-128c-64 0-64-64-64-64h256s0 64-64 64z m0-128h-128c-64 0-64-64-64-64h256s0 64-64 64z m448 256h-128c-64 0-64-64-64-64h256s0 64-64 64z m0-128h-128c-64 0-64-64-64-64h256s0 64-64 64z m0-128h-128c-64 0-64-64-64-64h256s0 64-64 64z m-160 416c-64 0-128-64-128-64s-64 64-128 64c-160 0-352-64-352-64v-608l448 32s-1-32 31-32c33 0 33 32 33 32l448-32v608s-192 64-352 64z m-160-608s1 64-64 64c-193 0-320-64-320-64v512s128 32 256 32c64 0 128-64 128-64v-480z m448 32s-97 32-320 32c-62 0-64-64-64-64v480s64 64 128 64c128 0 256-64 256-64v-448z" glyph-name="book" horiz-adv-x="1024" unicode=""/><glyph d="M0 704v-768l192 128 192-128v768h-384z m316-197l-72-52 27-83c3-8-1-11-8-7l-72 52-72-52c-7-4-10-2-8 7l27 83-72 52c-6 5-5 9 4 9h88l27 83c3 9 8 9 10 0l27-83h88c9 0 10-4 4-9z" glyph-name="bookmark" horiz-adv-x="384" unicode=""/><glyph d="M896 640h-256v66c0 34-28 62-62 62h-132c-34 0-62-28-62-62v-66h-256c-35 0-64-29-64-64v-512c0-35 29-64 64-64h768c35 0 64 29 64 64v512c0 35-29 64-64 64z m-448 48c0 9 7 16 16 16h96c9 0 16-7 16-16v-48h-128v48z m448-368h-320v-64h-128v64h-320v256h64v-192h640v192h64v-256z" glyph-name="briefcase" horiz-adv-x="1024" unicode=""/><glyph d="M320 256v-128c0-64 64-64 64-64v-256h128v256s64 0 64 64v128c0 64-64 64-64 64h-128s-64 0-64-64z m256 192c0 128-128 128-128 128s-128 0-128-128 128-128 128-128 128 0 128 128z m-128 384c-247 0-448-201-448-448 0-197 128-363 305-423l-12 72c-135 60-229 194-229 351 0 212 172 384 384 384s384-172 384-384c0-157-94-291-229-351l-12-72c177 60 305 225 305 423 0 247-201 448-448 448z m0-192c142 0 256-115 256-256 0-69-28-132-72-178l-16-93c91 56 152 156 152 271 0 177-143 320-320 320s-320-143-320-320c0-115 61-215 152-271l-16 93c-45 46-72 109-72 178 0 142 115 256 256 256z" glyph-name="broadcast" horiz-adv-x="896" unicode=""/><glyph d="M320 640h64v-64h-64v64z m-128 0h64v-64h-64v64z m-128 0h64v-64h-64v64z m768-640h-768v512h768v-512z m0 576h-384v64h384v-64z m64 64c0 35-29 64-64 64h-768c-35 0-64-29-64-64v-640c0-35 29-64 64-64h768c35 0 64 29 64 64v640z" glyph-name="browser" horiz-adv-x="896" unicode=""/><glyph d="M244 675c-53-57-38-147-38-147s54-64 160-64 160 64 160 64 14 89-37 146c32 18 51 44 44 62-9 20-48 22-88 4-15-7-27-15-37-24-12 2-26 4-41 4-14 0-27-1-38-3-10 9-22 17-37 23-40 18-79 16-88-4-8-17 10-43 41-61z m401-413c-8 2-16 3-24 4 0 2 0 4 0 6 0 34-5 66-12 96 16-1 37 2 59 12 40 18 65 48 56 68s-48 22-88 4c-19-8-34-19-44-31-8 18-17 36-27 52-30-25-87-63-167-71v-322s0-32-32-32-32 32-32 32v322c-80 8-137 46-167 71-10-15-18-32-26-49-10 11-25 21-42 29-40 18-79 16-88-4s16-50 56-68c20-9 40-13 55-12-8-30-12-62-12-96 0-2 0-4 0-7-7-1-14-2-21-3-52-11-92-38-89-60s48-32 100-21c7 1 13 3 20 5 9-41 24-79 44-111-12-6-25-15-36-27-32-32-45-71-29-87s55-3 87 29c9 9 17 19 23 29 44-43 98-68 158-68s116 26 160 70c6-10 14-21 24-31 32-32 71-45 87-29s3 55-29 87c-12 12-26 22-38 28 20 33 35 70 44 111 7-2 15-4 23-6 52-11 97-2 100 21 3 22-37 49-89 60z" glyph-name="bug" horiz-adv-x="733.886" unicode=""/><glyph d="M704 320h-64v-128h64v128z m-128 0h-64v-128h64v128z m128 192h-64v-128h64v128z m128-192h-64v-128h64v128z m-256-192h-64v-128h64v128z m192 704h-64v-128h64v128z m-512 0h-64v-128h64v128z m576-320h-64v-128h64v128z m-256 0h-64v-128h64v128z m-256-384h-64v-128h64v128z m-128 192h-64v-128h64v128z m128 0h-64v-128h64v128z m512 448v-128h-192v128h-320v-128h-192v128h-128v-896h960v896h-128z m64-832h-832v640h832v-640z m-704 192h-64v-128h64v128z m256 384h-64v-128h64v128z m0-384h-64v-128h64v128z m-128 384h-64v-128h64v128z m128-192h-64v-128h64v128z m256-192h-64v-128h64v128z" glyph-name="calendar" horiz-adv-x="1024" unicode=""/><glyph d="M640 640l-384-384-128 128-128-128 256-256 512 512-128 128z" glyph-name="check" horiz-adv-x="768" unicode=""/><glyph d="M761 316l-50 50c-6 7-17 7-23 0l-105-105-120-120-93 93c-7 7-17 7-24 0l-50-50c-7-7-7-17 0-24l105-105 18-18 32-32c7-7 17-7 24 0l50 50 237 237c7 6 7 17 0 24z m-532-65l50 50c42 42 116 42 159 0l25-25 114 108v320h-576v-704h320l-92 92c-44 44-44 115 0 159z m-36 389h320v-64h-320v64z m0-128h320v-64h-320v64z m-64-192h-64v64h64v-64z m0 128h-64v64h64v-64z m0 128h-64v64h64v-64z m64-192h64v-64h-64v64z" glyph-name="checklist" horiz-adv-x="765.602" unicode=""/><glyph d="M512 512l-192-192-192 192-128-128 320-320 320 320-128 128z" glyph-name="chevron-down" horiz-adv-x="640" unicode=""/><glyph d="M448 512l-128 128-320-320 320-320 128 128-192 192 192 192z" glyph-name="chevron-left" horiz-adv-x="448" unicode=""/><glyph d="M128 640l-128-128 192-192-192-192 128-128 320 320-320 320z" glyph-name="chevron-right" horiz-adv-x="448" unicode=""/><glyph d="M320 576l-320-320 128-128 192 192 192-192 128 128-320 320z" glyph-name="chevron-up" horiz-adv-x="640" unicode=""/><glyph d="M320 640c-177 0-320-143-320-320s143-320 320-320 320 143 320 320-143 320-320 320z m0-128c28 0 54-6 77-17l-253-253c-10 24-17 50-17 77 0 106 86 192 192 192z m0-384c-28 0-55 6-79 17l254 253c11-24 17-50 17-78 0-106-86-192-192-192z" glyph-name="circle-slash" horiz-adv-x="640" unicode=""/><glyph d="M704-64h-640v576h640v-192h64v320c0 35-29 64-64 64h-192c0 71-57 128-128 128s-128-57-128-128h-192c-35 0-64-29-64-64v-704c0-35 29-64 64-64h640c35 0 64 29 64 64v128h-64v-128z m-512 704s0 0 64 0 64 64 64 64c0 35 29 64 64 64s64-29 64-64c0 0 0-64 64-64h64c64 0 64-64 64-64h-512s0 64 64 64z m-64-512h128v64h-128v-64z m448 128v128l-256-192 256-192v128h320v128h-320z m-448-256h192v64h-192v-64z m320 448h-320v-64h320v64z m-192-128h-128v-64h128v64z" glyph-name="clippy" horiz-adv-x="896" unicode=""/><glyph d="M384 256h256l64 64-64 64h-128v192l-64 64-64-64v-320z m64 512c-247 0-448-201-448-448s201-448 448-448 448 201 448 448-201 448-448 448z m0-768c-176 0-320 144-320 320s144 320 320 320c176-1 320-144 320-320s-144-320-320-320z" glyph-name="clock" horiz-adv-x="896" unicode=""/><glyph d="M832 512c-9 0-17-1-26-3-49 114-162 195-294 195s-246-80-294-195c-8 1-17 3-26 3-106 0-192-86-192-192s86-192 192-192c21 0 40 4 58 10 34-38 81-63 134-71v65c-50 10-92 43-113 88-22-18-49-29-79-29-71 0-128 57-128 128s57 128 128 128c25 0 49-8 68-20 21 120 125 212 252 212s230-92 251-213c20 13 44 21 70 21 71 0 128-57 128-128s-57-128-128-128c-10 0-20 2-30 4-29-41-76-68-130-68-11 0-22 2-32 4v-65c10-2 21-3 32-3 61 0 117 25 157 64 1 0 2 0 3 0 106 0 192 86 192 192s-86 192-192 192z m-256-192h-128v-320h-128l192-192 192 192h-128v320z" glyph-name="cloud-download" horiz-adv-x="1024" unicode=""/><glyph d="M512 448l-192-192h128v-320h128v320h128l-192 192z m320 64c-9 0-17-1-26-3-49 114-162 195-294 195s-246-80-294-195c-8 1-17 3-26 3-106 0-192-86-192-192s86-192 192-192c21 0 40 4 58 10 34-38 81-63 134-71v65c-50 10-92 43-113 88-22-18-49-29-79-29-71 0-128 57-128 128s57 128 128 128c25 0 49-8 68-20 21 120 125 212 252 212s230-92 251-213c20 13 44 21 70 21 71 0 128-57 128-128s-57-128-128-128c-10 0-20 2-30 4-29-41-76-68-130-68-11 0-22 2-32 4v-65c10-2 21-3 32-3 61 0 117 25 157 64 1 0 2 0 3 0 106 0 192 86 192 192s-86 192-192 192z" glyph-name="cloud-upload" horiz-adv-x="1024" unicode=""/><glyph d="M608 640l-96-96 224-224-224-224 96-96 288 320-288 320z m-320 0l-288-320 288-320 96 96-224 224 224 224-96 96z" glyph-name="code" horiz-adv-x="896" unicode=""/><glyph d="M0 704v-768h768v768h-768z m64-704v640h640l-640-640z" glyph-name="color-mode" horiz-adv-x="768" unicode=""/><glyph d="M768 704h-640c-62 0-128-64-128-128v-384c0-128 128-128 128-128h64v-256l256 256s258 0 320 0 128 68 128 128v384c0 62-64 128-128 128z" glyph-name="comment" horiz-adv-x="896" unicode=""/><glyph d="M768 768h-640c-64 0-128-66-128-128v-384c0-60 66-128 128-128s320 0 320 0l256-256v256h64s128 0 128 128v384c0 64-66 128-128 128z m-128-384h-128v-128h-128v128h-128v128h128v128h128v-128h128v-128z" glyph-name="comment-add" horiz-adv-x="896" unicode=""/><glyph d="M256 320v192h-192c-64 0-64-64-64-64s0-258 0-320 64-64 64-64h64v-192l194 192h192s62 4 62 64v64s-64 0-192 0-128 128-128 128z m576 384s-384 0-448 0-64-64-64-64 0-260 0-320 62-64 62-64h192l194-192v192h64s64 2 64 64v320c0 64-64 64-64 64z" glyph-name="comment-discussion" horiz-adv-x="896" unicode=""/><glyph d="M128 128h128v64h-128v-64z m192 0h128v64h-128v-64z m64 192h-256v-64h256v64z m-128 64h64l128 128h-64l-128-128z m192-128h192v64h-192v-64z m512 384h-896c-64 0-64-64-64-64v-512s0-64 64-64h896c64 0 64 64 64 64v512s0 64-64 64z m0-256v-288s0-32-32-32h-832c-32 0-32 32-32 32v288h64l128 128h-192v32s0 32 32 32h832c32 0 32-32 32-32v-32h-384l-128-128h512z" glyph-name="credit-card" horiz-adv-x="1024" unicode=""/><glyph d="M0 384v-128h512v128h-512z" glyph-name="dash" horiz-adv-x="512" unicode=""/><glyph d="M416 368c-62 0-112-50-112-112s50-112 112-112 112 50 112 112c0 9-1 17-3 25 82 95 208 243 276 327 23 29-2 56-32 32-85-69-232-195-327-276-8 2-16 3-25 3z m32 209c0 18-14 32-32 32s-32-14-32-32 14-32 32-32 32 14 32 32z m192-256c0-18 14-32 32-32s32 14 32 32-14 32-32 32-32-14-32-32z m-352 256c-18 0-32-14-32-32s14-32 32-32 32 14 32 32-14 32-32 32z m-64-128c0 18-14 32-32 32s-32-14-32-32 14-32 32-32 32 14 32 32z m-96-128c0-18 14-32 32-32s32 14 32 32-14 32-32 32-32-14-32-32z m448 224c0 18-14 32-32 32s-32-14-32-32 14-32 32-32 32 14 32 32z m217-49l-69-90c8-27 12-56 12-85 0-177-143-320-320-320s-320 143-320 320 143 320 320 320c66 0 127-20 178-54l79 61c-71 56-160 89-257 89-230 0-416-186-416-416s186-416 416-416 416 186 416 416c0 63-14 122-39 175z" glyph-name="dashboard" horiz-adv-x="832" unicode=""/><glyph d="M384-128c-212 0-384 57-384 128 0 39 0 81 0 128 0 11 6 22 14 32 43-55 192-96 370-96s328 41 370 96c8-10 14-21 14-32 0-37 0-76 0-128 0-71-172-128-384-128z m0 256c-212 0-384 57-384 128 0 39 0 81 0 128 0 7 3 13 6 20 2 4 5 8 8 12 43-55 192-96 370-96s328 41 370 96c3-4 6-8 8-12 3-7 6-13 6-20 0-37 0-76 0-128 0-71-172-128-384-128z m0 256c-212 0-384 57-384 128 0 20 0 42 0 64 0 20 0 41 0 64 0 71 172 128 384 128s384-57 384-128c0-20 0-41 0-64 0-20 0-40 0-64 0-71-172-128-384-128z m0 320c-141 0-256-29-256-64s115-64 256-64 256 29 256 64-115 64-256 64z" glyph-name="database" horiz-adv-x="768" unicode=""/><glyph d="M512 448c-71 0-128-57-128-128s57-128 128-128c6 0 11 0 17 1-46 7-82 47-82 95 0 53 43 96 96 96 48 0 88-36 95-82 1 6 1 11 1 17 0 71-57 128-128 128z m384 128h-128l-128 128h-256l-128-128h-128c-35 0-64-29-64-64v-448c0-35 29-64 64-64h768c35 0 64 29 64 64v448c0 35-29 64-64 64z m-480 64h192l64-64h-320l64 64z m-256-576c-18 0-32 14-32 32v288h64v64h-64v32c0 18 14 32 32 32h183c-4-4-8-7-12-11-100-100-100-262 0-362l75-75h-246z m352 64c-106 0-192 86-192 192s86 192 192 192 192-86 192-192-86-192-192-192z m320 224l-151 160h151v-160z" glyph-name="device-camera" horiz-adv-x="1024" unicode=""/><glyph d="M576 640c-35 0-64-29-64-64s29-64 64-64 64 29 64 64-29 64-64 64z m320-192l-128-128v64c0 31-22 56-50 63 31 34 50 80 50 129 0 106-86 192-192 192-101 0-184-78-191-177-34 31-79 49-129 49-106 0-192-86-192-192s86-192 192-192h-64v-128h64v-128c0-35 29-64 64-64h384c35 0 64 29 64 64v64l128-128h64v512h-64z m-640 64c-35 0-64-29-64-64s29-64 64-64v-64c-71 0-128 57-128 128s57 128 128 128 128-57 128-128h-64c0 35-29 64-64 64z m320-384h-128v128h128v-128z m128 109c-34 34-70 70-73 73-6 6-14 9-23 9h-192c-18 0-32-14-32-32v-192c0-8 3-16 8-22 1-1 39-39 74-74h-115c-18 0-32 14-32 32v320c0 18 14 32 32 32h320c18 0 32-14 32-32v-115z m-128 211c-71 0-128 57-128 128s57 128 128 128 128-57 128-128-57-128-128-128z m320-320l-64 64v128l64 64v-256z" glyph-name="device-camera-video" horiz-adv-x="1024" unicode=""/><glyph d="M960 768c-64 0-896 0-896 0-64 0-64-64-64-64v-576s0-64 64-64h320s-192-64-192-128 64-64 64-64h512s64 0 64 64-192 128-192 128h320c64 0 64 64 64 64v576s0 64-64 64z m0-640h-896v576h896v-576z m-64 512h-192c-384-64-576-384-576-384v-64h768v448z" glyph-name="device-desktop" horiz-adv-x="1024" unicode=""/><glyph d="M576 832h-512c-35 0-64-29-64-64v-896c0-35 29-64 64-64h512c35 0 64 29 64 64v896c0 35-29 64-64 64z m-288-64h64c18 0 32-14 32-32s-14-32-32-32h-64c-18 0-32 14-32 32s14 32 32 32z m64-896h-64c-18 0-32 14-32 32s14 32 32 32h64c18 0 32-14 32-32s-14-32-32-32z m224 128h-512v640h512v-640z" glyph-name="device-mobile" horiz-adv-x="640" unicode=""/><glyph d="M448 576h-128v-128h-128v-128h128v-128h128v128h128v128h-128v128z m-256-640h384v128h-384v-128z m448 896h-512v-64h480l224-224v-608h64v640l-256 256z m-640-128v-896h768v704l-192 192h-576z m704-832h-640v768h480l160-160v-608z" glyph-name="diff" horiz-adv-x="896" unicode=""/><glyph d="M512 512h-128v-128h-128v-128h128v-128h128v128h128v128h-128v128z m320 256h-768c-64 0-64-64-64-64v-768s0-64 64-64c0 0 704 0 768 0s64 64 64 64v768s0 64-64 64z m-64-736c0-32-32-32-32-32h-576s-32 0-32 32v576c0 32 32 32 32 32h576s32 0 32-32c0 0 0-549 0-576z" glyph-name="diff-added" horiz-adv-x="896" unicode=""/><glyph d="M832 768h-768c-64 0-64-64-64-64v-768s0-64 64-64c0 0 704 0 768 0s64 64 64 64v768s0 64-64 64z m-64-736c0-32-32-32-32-32h-576s-32 0-32 32v576c0 32 32 32 32 32h576s32 0 32-32c0 0 0-549 0-576z m-512 194v-98h98l286 286v98h-98l-286-286z" glyph-name="diff-ignored" horiz-adv-x="896" unicode=""/><glyph d="M832 768h-768c-64 0-64-64-64-64v-768s0-64 64-64c0 0 704 0 768 0s64 64 64 64v768s0 64-64 64z m-64-736c0-32-32-32-32-32h-576s-32 0-32 32v576c0 32 32 32 32 32h576s32 0 32-32c0 0 0-549 0-576z m-320 416c-71 0-128-57-128-128s57-128 128-128 128 57 128 128-57 128-128 128z" glyph-name="diff-modified" horiz-adv-x="896" unicode=""/><glyph d="M256 384v-128h384v128h-384z m576 384h-768c-64 0-64-64-64-64v-768s0-64 64-64c0 0 704 0 768 0s64 64 64 64v768s0 64-64 64z m-64-736c0-32-32-32-32-32h-576s-32 0-32 32v576c0 32 32 32 32 32h576s32 0 32-32c0 0 0-549 0-576z" glyph-name="diff-removed" horiz-adv-x="896" unicode=""/><glyph d="M832 768h-768c-64 0-64-64-64-64v-768s0-64 64-64c0 0 704 0 768 0s64 64 64 64v768s0 64-64 64z m-64-736c0-32-32-32-32-32h-576s-32 0-32 32v576c0 32 32 32 32 32h576s32 0 32-32c0 0 0-549 0-576z m-320 352h-192v-128h192v-128l256 192-256 192v-128z" glyph-name="diff-renamed" horiz-adv-x="896" unicode=""/><glyph d="M640 512c-103 0-512 0-512 0s-128 0-128-128 0-128 0-128 0-128 128-128 512 0 512 0 128 4 128 128 0 128 0 128-4 128-128 128z m-384-256h-128v128h128v-128z m192 0h-128v128h128v-128z m192 0h-128v128h128v-128z" glyph-name="ellipsis" horiz-adv-x="768" unicode=""/><glyph d="M512 704c-384 0-512-384-512-384s122-320 512-320 512 320 512 320-128 384-512 384z m0-640c-320 0-384 256-384 256s66 256 384 256 384-256 384-256-64-256-384-256z m0 448c-20 0-38-4-56-9 33-15 56-48 56-87 0-53-43-96-96-96-39 0-72 23-87 56-5-18-9-36-9-56 0-106 86-192 192-192s192 86 192 192-86 192-192 192z" glyph-name="eye" horiz-adv-x="1024" unicode=""/><glyph d="M456 503c33-15 56-48 56-87 0-53-43-96-96-96-39 0-72 23-87 56-5-18-9-36-9-56 0-106 86-192 192-192s192 86 192 192-86 192-192 192c-20 0-38-4-56-9z m540-119h-128c21-37 28-64 28-64s-64-256-384-256-384 256-384 256 66 256 384 256c25 0 49-2 71-5l-7 5v124c-21 2-42 4-64 4-384 0-512-384-512-384s122-320 512-320 512 320 512 320-9 26-28 64z m-266 87l103 103 103-103 67 67-103 103 103 103-67 67-103-103-103 103-67-67 103-103-103-103 67-67z" glyph-name="eye-unwatch" horiz-adv-x="1024" unicode=""/><glyph d="M960 384l-81-20c13-26 17-44 17-44s-64-256-384-256-384 256-384 256 66 256 384 256c17 0 33-1 49-3l-32 129c-6 0-11 1-16 1-384 0-512-384-512-384s122-320 512-320 512 320 512 320-19 57-64 126v-62z m-544-64c-39 0-72 23-87 56-6-18-9-36-9-56 0-106 86-192 192-192s192 86 192 192-86 192-192 192c-20 0-38-4-56-9 33-15 56-48 56-87 0-53-43-96-96-96z m480 384v128h-128v-128h-128v-128h128v-128h128v128h128v128h-128z" glyph-name="eye-watch" horiz-adv-x="1024" unicode=""/><glyph d="M448 512h-128v-128h-128v-128h128v-128h128v128h128v128h-128v128z m128 256h-576v-896h768v704l-192 192z m128-832h-640v768h480l160-160v-608z" glyph-name="file-add" horiz-adv-x="768" unicode=""/><glyph d="M0-128v896h576l192-192v-704h-768z m704 640l-192 192h-448v-768h640v576z m-384-192h-192v256h192v-256z m-64 192h-64v-128h64v128z m0-448h64v-64h-192v64h64v128h-64v64h128v-192z m256 320h64v-64h-192v64h64v128h-64v64h128v-192z m64-384h-192v256h192v-256z m-64 192h-64v-128h64v128z" glyph-name="file-binary" horiz-adv-x="768" unicode=""/><glyph d="M288 448l-160-160 160-160 64 64-96 96 96 96-64 64z m128-64l96-96-96-96 64-64 160 160-160 160-64-64z m160 384h-576v-896h768v704l-192 192z m128-832h-640v768h448l192-192v-576z" glyph-name="file-code" horiz-adv-x="768" unicode=""/><glyph d="M832 640s-320 0-352 0-32 32-32 32 0 21 0 32c0 64-64 64-64 64s-256 0-320 0-64-64-64-64v-704h896s0 510 0 576-64 64-64 64z m-448 0h-320v32s0 32 32 32h256c32 0 32-32 32-32v-32z" glyph-name="file-directory" horiz-adv-x="896" unicode=""/><glyph d="M832 640s-320 0-352 0-32 32-32 32 0 21 0 32c0 64-64 64-64 64s-256 0-320 0-64-64-64-64v-704h896s0 510 0 576-64 64-64 64z m-768 32s0 32 32 32h256c32 0 32-32 32-32v-32h-320v32z m576-416h-128v-128h-128v128h-128v128h128v128h128v-128h128v-128z" glyph-name="file-directory-create" horiz-adv-x="896" unicode=""/><glyph d="M576 768h-576v-896h768v704l-192 192z m128-832h-640v768h448l192-192v-576z m-576 640v-512h128c0 71 57 128 128 128-71 0-128 57-128 128s57 128 128 128 128-57 128-128-57-128-128-128c71 0 128-57 128-128h128v384l-128 128h-384z" glyph-name="file-media" horiz-adv-x="768" unicode=""/><glyph d="M576 768h-576v-896h768v704l-192 192z m-512-64h256c-13-4-27-15-35-43-13-49-7-131 16-209-24-81-123-277-129-288-16-5-65-24-108-60v600z m283-307c58-150 95-150 135-168-84-13-148-22-233-59-4-6 77 146 97 227z m357-461h-640c1 0 1 0 2 0 34 0 85 21 181 182 38 15 72 27 78 29 59 15 125 27 188 33 54-27 127-46 168-48 10-1 16 1 24 2v-198z m0 311c-24 15-54 25-89 25-24 0-51-1-79-4-27 13-93 33-147 190 17 104 13 174 13 174 7 53-23 73-52 73h162l192-192v-265z" glyph-name="file-pdf" horiz-adv-x="768" unicode=""/><glyph d="M832 320h-192s2 64-64 64-64 0-128 0-64-64-64-64v-320h512s0 190 0 256-64 64-64 64z m-256-64h-128v32s0 32 32 32h64c32 0 32-32 32-32v-32z m256 320s-320 0-352 0-32 32-32 32v32s0 64-64 64h-320c-64 0-64-64-64-64v-640h320v384c0 62 64 64 64 64s190 0 256 0 64-64 64-64h192v128c0 66-64 64-64 64z m-448 0h-320v32s0 32 32 32h256c32 0 32-32 32-32v-32z" glyph-name="file-submodule" horiz-adv-x="896" unicode=""/><glyph d="M832 640s-320 0-352 0-32 32-32 32 0 21 0 32c0 64-64 64-64 64s-256 0-320 0-64-64-64-64v-704h896s0 510 0 576-64 64-64 64z m-768 32s0 32 32 32h256c32 0 32-32 32-32v-32h-320v32z m384-544v128s-192-5-256-192c0 315 256 320 256 320v128l256-192-256-192z" glyph-name="file-symlink-directory" horiz-adv-x="896" unicode=""/><glyph d="M576 768h-576v-896h768v704l-192 192z m128-832h-640v768h448l192-192v-576z m-320 448s-256 0-256-315c64 187 256 187 256 187v-128l256 192-256 192v-128z" glyph-name="file-symlink-file" horiz-adv-x="768" unicode=""/><glyph d="M448 576h-320v-64h320v64z m128 192h-576v-896h768v704l-192 192z m128-832h-640v768h448l192-192v-576z m-576 128h512v64h-512v-64z m0 128h512v64h-512v-64z m0 128h512v64h-512v-64z" glyph-name="file-text" horiz-adv-x="768" unicode=""/><glyph d="M320 256v64h-64v-64h64z m0 128v64h-64v-64h64z m0 128v64h-64v-64h64z m-128-64h64v64h-64v-64z m384 320h-576v-896h768v704l-192 192z m128-832h-640v768h192v-64h64v64h192l192-192v-576z m-512 640h64v64h-64v-64z m0-256h64v64h-64v-64z m0-128l-64-64v-128h256v128l-64 64h-64v64h-64v-64z m128-64v-64h-128v64h128z" glyph-name="file-zip" horiz-adv-x="768" unicode=""/><glyph d="M433 787c105-282-127-292-255-471-89-125-104-400 217-472-135 71-164 277-18 406-38-125 32-205 119-176 85 29 141-32 139-102-1-48-16-85-69-112 0 0 293 56 293 342 0 174-155 198-77 344-93-8-125-69-116-169 6-66-63-111-114-81-41 25-40 73-4 109 77 76 107 251-115 382z" glyph-name="flame" horiz-adv-x="1024" unicode=""/><glyph d="M896 576h-224l-64-64h192l-128-128h-448l-128 128h192l-64 64h-224v-64l160-160-160-160v-64h224l64 64h-192l128 128h448l128-128h-192l64-64h224v64l-160 160 160 160v64z m-256 64h-128v192h-128v-192h-128l192-192 192 192z m-384-576h128v-192h128v192h128l-192 192-192-192z" glyph-name="fold" horiz-adv-x="896" unicode=""/><glyph d="M448 482c-89 0-162-73-162-162s73-162 162-162 161 73 161 162-72 162-161 162z m325-255l-29-70 52-102 7-14-72-72-118 56-70-29-36-109-5-15h-102l-44 123-70 29-102-52-14-7-72 72 56 119-29 70-109 36-14 5v102l123 44 29 70-52 102-7 13 72 72 119-56 70 29 36 109 5 14h102l44-123 70-29 102 52 14 7 72-72-56-118 29-70 109-36 14-5v-102l-123-44z" glyph-name="gear" horiz-adv-x="896" unicode=""/><glyph d="M448-128h320v320h-320v-320z m-384 0h320v320h-320v-320z m384 584c31 4 67 7 87 10 84 9 159 85 169 169 9 84-51 144-135 135-65-7-125-55-153-115-28 60-88 108-153 115-84 9-144-51-135-135s85-159 169-169c21-2 56-6 87-10-1-4 0-8 0-8h64s0 4 0 8z m108 236c45 5 78-28 73-73s-46-86-91-91-78 28-73 73 46 86 91 91z m-260-164c-45 5-86 46-91 91s28 78 73 73 86-46 91-91-28-78-73-73z m153-79v-192h384v192h-384z m-448-192h384v192h-384v-192z" glyph-name="gift" horiz-adv-x="896" unicode=""/><glyph d="M416 384l96-96-96-96 64-64 160 160-160 160-64-64z m160 256h-384c-62 0-64-64-64-64h512s0 64-64 64z m-576 128v-832h768v832h-768z m704-768h-640v704h640v-704z m-352 192l-96 96 96 96-64 64-160-160 160-160 64 64z" glyph-name="gist" horiz-adv-x="768" unicode=""/><glyph d="M448 384l-64-64-64 62v130h-128v-192l128-128v-128h128v128l128 128v192h-128v-128z m128 256h-384c-64 0-64-64-64-64h512s-2 64-64 64z m-576 128v-832h768v832h-768z m704-768h-640v704h640v-704z" glyph-name="gist-fork" horiz-adv-x="768" unicode=""/><glyph d="M448 512h-128v-128h-128v-128h128v-128h128v128h128v128h-128v128z m128 128h-384c-64 0-64-64-64-64h512s-2 64-64 64z m-576 128v-832h768v832h-768z m704-768h-640v704h640v-704z" glyph-name="gist-new" horiz-adv-x="768" unicode=""/><glyph d="M384 448c-128 0-128-128-128-128v-192h256v192s0 128-128 128z m-64-128s0 64 64 64 64-64 64-64h-128z m-320 448v-832h768v832h-768z m704-768h-640v704h640v-704z m-128 640h-384c-64 0-64-64-64-64h512s0 64-64 64z" glyph-name="gist-private" horiz-adv-x="768" unicode=""/><glyph d="M448 512l-64-32-64 32-64-128h256l-64 128z m-256-192h384l-64 32h-256l-64-32z m384 320h-384c-62 0-64-64-64-64h512s0 64-64 64z m64-416l-160 32 32-64-64-128h160l32 160z m-224-32l32 64h-128l32-64-32-128h128l-32 128z m-416 576v-832h768v832h-768z m704-768h-640v704h640v-704z m-384 64l-64 128 32 64-160-32 32-160h160z" glyph-name="gist-secret" horiz-adv-x="768" unicode=""/><glyph d="M512 640c-71 0-128-57-128-128 0-47 26-88 64-110v-18s0-128-128-128c-53 0-95-11-128-29v303c38 22 64 63 64 110 0 71-57 128-128 128s-128-57-128-128c0-47 26-88 64-110v-419c-38-22-64-63-64-110 0-71 57-128 128-128s128 57 128 128c0 34-13 64-34 87 19 23 49 41 98 41 254 0 256 256 256 256v18c38 22 64 63 64 110 0 71-57 128-128 128z m-384 64c35 0 64-29 64-64s-29-64-64-64-64 29-64 64 29 64 64 64z m0-768c-35 0-64 29-64 64s29 64 64 64 64-29 64-64-29-64-64-64z m384 512c-35 0-64 29-64 64s29 64 64 64 64-29 64-64-29-64-64-64z" glyph-name="git-branch" horiz-adv-x="640" unicode=""/><glyph d="M576 704v128h-128v-128h-128v-128h128v-128h128v128h128v128h-128z m-256-448c-53 0-95-11-128-29v303c38 22 64 63 64 110 0 71-57 128-128 128s-128-57-128-128c0-47 26-88 64-110v-419c-38-22-64-63-64-110 0-71 57-128 128-128s128 57 128 128c0 34-13 64-34 87 19 23 49 41 98 41 254 0 256 256 256 256h-128s0-128-128-128z m-192 448c35 0 64-29 64-64s-29-64-64-64-64 29-64 64 29 64 64 64z m0-768c-35 0-64 29-64 64s29 64 64 64 64-29 64-64-29-64-64-64z" glyph-name="git-branch-create" horiz-adv-x="704" unicode=""/><glyph d="M448 384s0-128-128-128c-53 0-95-11-128-29v303c38 22 64 63 64 110 0 71-57 128-128 128s-128-57-128-128c0-47 26-88 64-110v-419c-38-22-64-63-64-110 0-71 57-128 128-128s128 57 128 128c0 34-13 64-34 87 19 23 49 41 98 41 254 0 256 256 256 256l-64 64-64-64z m-320 320c35 0 64-29 64-64s-29-64-64-64-64 29-64 64 29 64 64 64z m0-768c-35 0-64 29-64 64s29 64 64 64 64-29 64-64-29-64-64-64z m553 807l-67 67-103-103-103 103-67-67 103-103-103-103 67-67 103 103 103-103 67 67-103 103 103 103z" glyph-name="git-branch-delete" horiz-adv-x="681" unicode=""/><glyph d="M695 384c-29 110-128 192-247 192s-218-82-247-192h-201v-128h201c29-110 128-192 247-192s218 82 247 192h201v128h-201z m-247-192c-71 0-128 57-128 128s57 128 128 128 128-57 128-128-57-128-128-128z" glyph-name="git-commit" horiz-adv-x="896" unicode=""/><glyph d="M832 110v402c0 193-192 192-192 192h-64v128l-192-192 192-192v128s27 0 64 0c56 0 64-64 64-64v-402c-38-22-64-63-64-110 0-71 57-128 128-128s128 57 128 128c0 47-26 88-64 110z m-64-174c-35 0-64 29-64 64s29 64 64 64 64-29 64-64-29-64-64-64z m-704 580v-402c0-193 192-192 192-192h64v-128l192 192-192 192v-128s-27 0-64 0c-56 0-64 64-64 64v402c38 22 64 63 64 110 0 71-57 128-128 128s-128-57-128-128c0-47 26-88 64-110z m64 44c-35 0-64 29-64 64s29 64 64 64 64-29 64-64-29-64-64-64z" glyph-name="git-compare" horiz-adv-x="896" unicode=""/><glyph d="M320 256c-47 0-90-14-128-36v309c38 22 64 63 64 110 0 71-57 128-128 128s-128-57-128-128c0-47 26-88 64-110v-419c-38-22-64-63-64-110 0-71 57-128 128-128s128 57 128 128c0 32-12 61-32 84 24 27 58 44 96 44 141 0 256 115 256 256 0 0-64 0-128 0 0-71-57-128-128-128z m-192 448c35 0 64-29 64-64s-29-64-64-64-64 29-64 64 29 64 64 64z m0-768c-35 0-64 29-64 64s29 64 64 64 64-29 64-64-29-64-64-64z m384 832c-128 0-128-128-128-128v-192h256v192s0 128-128 128z m-64-128s0 64 64 64 64-64 64-64h-128z" glyph-name="git-fork-private" horiz-adv-x="640" unicode=""/><glyph d="M640 384c-48 0-89-26-111-65-6 0-11 1-17 1-131 0-255 100-301 223 27 23 45 58 45 97 0 71-57 128-128 128s-128-57-128-128c0-47 26-88 64-110v-419c-38-22-64-63-64-110 0-71 57-128 128-128s128 57 128 128c0 47-26 88-64 110v230c84-89 200-149 320-149 6 0 12 0 17 1 22-38 63-65 111-65 71 0 128 57 128 128s-57 128-128 128z m-512-448c-35 0-64 29-64 64s29 64 64 64 64-29 64-64-29-64-64-64z m0 640c-35 0-64 29-64 64s29 64 64 64 64-29 64-64-29-64-64-64z m512-384c-35 0-64 29-64 64s29 64 64 64 64-29 64-64-29-64-64-64z" glyph-name="git-merge" horiz-adv-x="768" unicode=""/><glyph d="M128 768c-71 0-128-57-128-128 0-47 26-88 64-110v-419c-38-22-64-63-64-110 0-71 57-128 128-128s128 57 128 128c0 47-26 88-64 110v419c38 22 64 63 64 110 0 71-57 128-128 128z m0-832c-35 0-64 29-64 64s29 64 64 64 64-29 64-64-29-64-64-64z m0 640c-35 0-64 29-64 64s29 64 64 64 64-29 64-64-29-64-64-64z m576-466v402c0 193-192 192-192 192h-64v128l-192-192 192-192v128s27 0 64 0c56 0 64-64 64-64v-402c-38-22-64-63-64-110 0-71 57-128 128-128s128 57 128 128c0 47-26 88-64 110z m-64-174c-35 0-64 29-64 64s29 64 64 64 64-29 64-64-29-64-64-64z" glyph-name="git-pull-request" horiz-adv-x="768" unicode=""/><glyph d="M256 640c0 71-57 128-128 128s-128-57-128-128c0-47 26-88 64-110v-419c-38-22-64-63-64-110 0-71 57-128 128-128s128 57 128 128c0 47-26 88-64 110v419c38 22 64 63 64 110z m-128-704c-35 0-64 29-64 64s29 64 64 64 64-29 64-64-29-64-64-64z m0 640c-35 0-64 29-64 64s29 64 64 64 64-29 64-64-29-64-64-64z m576-466v274l-64 64-64-64v-274c-38-22-64-63-64-110 0-71 57-128 128-128s128 57 128 128c0 47-26 88-64 110z m-64-174c-35 0-64 29-64 64s29 64 64 64 64-29 64-64-29-64-64-64z m169 807l-67 67-103-103-103 103-67-67 103-103-103-103 67-67 103 103 103-103 67 67-102 103 103 103z" glyph-name="git-pull-request-abandoned" horiz-adv-x="896" unicode=""/><glyph d="M512 704c-212 0-384-172-384-384s172-384 384-384c26 0 51 3 76 7-10 5-11 40-1 60 11 23 45 80 11 99s-24 28-45 50-12 25-14 31c-5 20 20 49 21 52s1 14 1 18-15 12-19 13-6-6-11-6-28 14-33 18-7 13-14 20-8 2-18 6-44 17-70 27-28 25-29 36-16 26-23 36c-7 11-9 26-11 23s14-43 11-44-8 11-16 21 8 5-16 52 8 71 9 96 20-9 11 7 1 49-7 61-50-14-50-14c1 12 38 32 64 50s42 4 63-3 23-5 15 2 3 10 20 8 21-23 46-21 3-5 6-11-4-6-20-17 0-11 30-33 20 14 17 30 21 3 21 3c18-12 15-1 28-5s49-34 49-34c-45-24-17-27-9-33s-15-17-15-17c-9 9-11 0-17-4s0-12 0-12c-31-5-24-38-24-45s-20-20-25-31 14-36 4-37-20 37-72 23c-16-4-51-23-32-60s50 11 60 5-3-29-1-29 30-1 31-33 42-29 50-30 38 24 42 25 21 15 57-6 54-18 67-26 4-26 15-32 58 2 70-17-48-115-67-126-27-35-46-50-45-34-70-49c-22-13-26-36-36-44 172 38 300 192 300 375 0 212-172 384-384 384z m90-360c-5-2-16-11-43 5s-45 13-47 15c0 0-2 6 9 8 24 2 54-22 61-23s10 7 22 3 3-6-2-8z m-126 322c-3 2 2 4 5 8 2 2 0 6 2 8 6 6 33 14 28-2-5-15-31-17-35-14z m67-49c-9 0-31 3-27 7 16 16-6 20-20 21s-19 9-12 9 34 0 38-4 29-14 30-21 0-13-9-13z m81 3c-8-6-45 22-53 28-32 27-48 18-55 23s-4 11 6 20 39-3 55-5 36-15 36-30 18-29 11-35z" glyph-name="globe" horiz-adv-x="1024" unicode=""/><glyph d="M704 576h-192v-640h192v640z m256-192h-192v-448h192v448z m-896-512v128h64v64h-64v128h64v64h-64v128h64v64h-64v128h64v64h-64v128h64v64h-128v-1024h1024v64h-960z m384 384h-192v-320h192v320z" glyph-name="graph" horiz-adv-x="1024" unicode=""/><glyph d="M384-32c399 314 384 425 384 512s-72 192-192 192-192-128-192-128-72 128-192 128-192-105-192-192-15-198 384-512z" glyph-name="heart" horiz-adv-x="768.199" unicode="♥"/><glyph d="M448 768c-91 0-175-28-246-74l-74 74v-256h256l-88 88c45 25 97 40 152 40 177 0 320-143 320-320s-143-320-320-320-320 143-320 320c0 46 10 89 27 128h-91v99c-40-67-64-144-64-227 0-247 201-448 448-448s448 201 448 448-201 448-448 448z m-1-767l65 63v192h128l64 64-64 64h-128l-64 64-128-128 64-64v-192l63-63z" glyph-name="history" horiz-adv-x="896" unicode=""/><glyph d="M192 256l64-384h192v320h128v-320h192l64 384-320 320-320-320z m640 192v256h-128v-128l-192 192-512-512h128l384 384 384-384h128l-192 192z" glyph-name="home" horiz-adv-x="1024" unicode=""/><glyph d="M64 384h128v-128h64v384h-64v-192h-128v192h-64v-384h64v128z m576-128v128h-64v-128h64z m0 192v128h-64v-128h64z m-192 0v128h128v64h-192v-384h64v128h128v64h-128z m-448-448h640v128h-640v-128z" glyph-name="horizontal-rule" horiz-adv-x="639.875" unicode=""/><glyph d="M571 318c118 85 197 240 197 384 0 71-172 128-384 128s-384-57-384-128c0-144 80-299 197-384-118-85-197-240-197-384 0-71 172-128 384-128s384 57 384 128c0 144-80 299-197 384z m-187 448c141 0 256-29 256-64s-115-64-256-64-256 29-256 64 115 64 256 64z m-64-706c-154-7-238-40-253-82 16 114 89 215 189 275 0 0 64-1 64 64v-258z m62 386c-97 0-145-17-168-33-69 55-121 130-141 214 70-32 182-53 311-53s241 21 311 53c-20-85-72-160-142-215-24 17-72 34-171 34z m66-386v258c0-62 64-64 64-64 100-60 173-162 189-275-14 41-99 75-253 82z" glyph-name="hourglass" horiz-adv-x="768" unicode=""/><glyph d="M512 768c-283 0-512-229-512-512v-256c0-126 128-128 128-128h768s128 1 128 128v256c0 283-229 512-512 512z m96-768h-192c-18 0-32 14-32 32s14 32 32 32h192c18 0 32-14 32-32s-14-32-32-32z m288 128c0-61-64-64-64-64h-128s0 64-64 64h-256c-64 0-64-64-64-64h-128c-63 0-64 64-64 64v360c78 129 220 216 384 216s306-87 384-216v-360z m-128 384h-512c-35 0-64-29-64-64v-128c0-35 29-64 64-64h512c35 0 64 29 64 64v128c0 35-29 64-64 64z m0-128l-64-64h-128l-64 64-64-64h-128l-64 64v64h64l64-64 64 64h128l64-64 64 64h64v-64z" glyph-name="hubot" horiz-adv-x="1024" unicode=""/><glyph d="M704 640h-640l-64-384v-256h768v256l-64 384z m-128-384l-64-128h-256l-64 128h-113l49 320h512l49-320h-113z" glyph-name="inbox" horiz-adv-x="768" unicode=""/><glyph d="M448 448c35 0 64 29 64 64s-29 64-64 64-64-29-64-64 29-64 64-64z m0 320c-247 0-448-201-448-448s201-448 448-448 448 201 448 448-201 448-448 448z m0-768c-177 0-320 143-320 320s143 320 320 320 320-143 320-320-143-320-320-320z m64 320c0 66-64 64-64 64s0 0-64 0-64-64-64-64h64s0-128 0-192 64-64 64-64 0 0 64 0 64 64 64 64h-64s0 126 0 192z" glyph-name="info" horiz-adv-x="896" unicode=""/><glyph d="M704 516l-96-96 160-164 256 256-96 96-159-159-65 67z m-192-516c-177 0-320 143-320 320s143 320 320 320c88 0 168-36 226-94l91 91c-81 81-193 131-317 131-247 0-448-201-448-448s201-448 448-448 448 201 448 448l-200-200c9 11-75-120-248-120z m64 576h-128v-320h128v320z m-128-512h128v128h-128v-128z" glyph-name="issue-closed" horiz-adv-x="1024" unicode=""/><glyph d="M448 768c-247 0-448-201-448-448s201-448 448-448 448 201 448 448-201 448-448 448z m0-768c-177 0-320 143-320 320s143 320 320 320 320-143 320-320-143-320-320-320z m-64 64h128v128h-128v-128z m0 192h128v320h-128v-320z" glyph-name="issue-opened" horiz-adv-x="896" unicode=""/><glyph d="M639 65c-53-40-119-65-191-65-177 0-320 143-320 320 0 46 10 89 27 128h-91v99c-40-67-64-144-64-227 0-247 201-448 448-448 107 0 205 39 282 102l38-38v192h-192l63-63z m-255-1h128v128h-128v-128z m128 512h-128v-320h128v320z m384-256c0 247-201 448-448 448-107 0-205-39-282-102l-38 38v-192h192l-63 63c53 40 119 65 191 65 177 0 320-143 320-320 0-46-10-89-27-128h91v-100c40 67 64 144 64 228z" glyph-name="issue-reopened" horiz-adv-x="896" unicode=""/><glyph d="M704 832h-192s-1-64-97-64-95 64-95 64h-192c0-128-2-384-128-384l-1-576s0-64 64-64h704c64 0 64 64 64 64v576c-126 0-128 256-128 384z m-609-960c-32 0-32 32-32 32l1 480c119 64 128 192 128 384h64s0-192 160-192 160 192 160 192 38 0 64 0c0-186 32-276 64-339v-557h-609z m385 576l-32-32v-320l32-32h128l32 32v320l-32 32h-128z m96-320h-64v256h64v-256z m-352 320l-32-32v-320l32-32h128l32 32v320l-32 32h-128z m96-320h-64v256h64v-256z" glyph-name="jersey" horiz-adv-x="896" unicode=""/><glyph d="M768 640h-768l384-384 384 384z m-768-512v-128h768v128h-768z" glyph-name="jump-down" horiz-adv-x="768" unicode=""/><glyph d="M256 320l384-384v768l-384-384z m-256-384h128v768h-128v-768z" glyph-name="jump-left" horiz-adv-x="640" unicode=""/><glyph d="M0-64l384 384-384 384v-768z m512 768v-768h128v768h-128z" glyph-name="jump-right" horiz-adv-x="640" unicode=""/><glyph d="M0 0h768l-384 384-384-384z m0 640v-128h768v128h-768z" glyph-name="jump-up" horiz-adv-x="768" unicode=""/><glyph d="M384 448v64h-64s0 64-64 64h-128s-44 8-64-22-64-106-64-106v-192s38-60 64-96 64-32 64-32h128c64 0 64 64 64 64h64v64h64l128 128 128-128 128 128 128-128 64 64v128h-640z m-128-256h-128l128 64v-64z m-96 64l-96 96 96 96 96-96-96-96z m96 192l-128 64h128v-64z" glyph-name="key" horiz-adv-x="1024" unicode=""/><glyph d="M640 256h64v128h-64v-128z m128 320h-64v-128h64v128z m-128 0h-64v-128h64v128z m-128-320h64v128h-64v-128z m-128-192h320v128h-320v-128z m384 192h128v320h-64v-192h-64v-128z m-512-192h64v128h-64v-128z m512 0h128v128h-128v-128z m-256 512h-64v-128h64v128z m-320-192h-64v-128h64v128z m0-192h-64v-128h64v128z m-192 512v-768h1024v768h-1024z m960-704h-896v640h896v-640z m-576 256h64v128h-64v-128z m-128 320h-128v-128h128v128z m128 0h-64v-128h64v128z m-128-320h64v128h-64v-128z" glyph-name="keyboard" horiz-adv-x="1024" unicode=""/><glyph d="M512 768c-177 0-320-143-320-320 0-105 50-198 128-256v-192c0-35 29-64 64-64 0-35 29-64 64-64h128c35 0 64 29 64 64 35 0 64 29 64 64v192c78 58 128 151 128 256 0 177-143 320-320 320z m128-736c0-18-14-32-32-32h-192c-18 0-32 14-32 32v32h256v-32z m64 247c-33-33-64-42-64-124v-27h-64v128l128 128v64l-64 64-64-64-64 64-64-64-64 64-64-64v-64l128-128v-128h-64v27c0 82-31 91-64 124-40 45-64 104-64 169 0 141 115 256 256 256s256-115 256-256c0-65-24-124-64-169z m-192-23l-128 128v64l64-64 64 64 64-64 64 64v-64l-128-128z" glyph-name="light-bulb" horiz-adv-x="1024" unicode=""/><glyph d="M768 64h-192s-254 0-256 256c0 22 3 43 8 64h137c-11-19-18-41-18-64 0-128 128-128 128-128h192s128 0 128 128-128 128-128 128 0 64-64 128h64s256 0 256-256-256-256-256-256z m-72 192h-137c11 19 18 41 18 64 0 128-128 128-128 128h-192s-128 0-128-128 128-128 128-128-4-65 66-128h-66s-256 0-256 256 256 256 256 256h192s256 0 256-256c0-22-4-44-8-64z" glyph-name="link" horiz-adv-x="1024" unicode=""/><glyph d="M640 64h-512v510l128 2v128h-256v-768h768v320h-128v-192z m-256 640l128-128-192-192 128-128 192 192 128-128v384h-384z" glyph-name="link-external" horiz-adv-x="768" unicode=""/><glyph d="M0 128h64v64h128v-64l-192-160v-96h256v64h-192l192 160v160h-256v-128z m384-256h512v128h-512v-128z m-192 832h-128v-64h128v-256h64v384h-64v-64z m192 64v-128h512v128h-512z m0-384h512v128h-512v-128z m0-256h512v128h-512v-128z" glyph-name="list-ordered" horiz-adv-x="896" unicode=""/><glyph d="M0 640h128v128h-128v-128z m0-512h128v128h-128v-128z m0 256h128v128h-128v-128z m0-512h128v128h-128v-128z m256 256h640v128h-640v-128z m0 256h640v128h-640v-128z m0-512h640v128h-640v-128z m0 896v-128h640v128h-640z" glyph-name="list-unordered" horiz-adv-x="896" unicode=""/><glyph d="M320 832c-177 0-320-143-320-320s320-704 320-704 320 527 320 704-143 320-320 320z m0-448c-71 0-128 57-128 128s57 128 128 128 128-57 128-128-57-128-128-128z" glyph-name="location" horiz-adv-x="640" unicode=""/><glyph d="M704 384h-64v192s0 256-256 256-256-256-256-256v-192h-64s-64 0-64-64v-448c0-64 64-64 64-64h640s64 0 64 64v448c0 64-64 64-64 64z m-192-128h-384v-64h384v-64h-384v-64h384v-64h-384v-64h384v-64h-448v448h448v-64z m0 128h-256v192s0 128 128 128 128-128 128-128v-192z" glyph-name="lock" horiz-adv-x="768" unicode=""/><glyph d="M640 256v128h256v128h-256v128l-192-144v144l-256 128h512v-192h64v256h-704v-832l384-192v192h320v320h-64v-256h-256v336z" glyph-name="log-in" horiz-adv-x="896" unicode=""/><glyph d="M640 64h-256v576l-256 128h512v-192h64v256h-704v-832l384-192v192h320v320h-64v-256z m384 384l-256 192v-128h-256v-128h256v-128l256 192z" glyph-name="log-out" horiz-adv-x="1024" unicode=""/><glyph d="M553 500h-241c-6 0-11-5-11-11v-118c0-6 5-11 11-11h94v-147s-21-7-79-7c-69 0-165 25-165 237s100 239 194 239c81 0 117-14 139-21 7-2 13 5 13 11l27 114c0 3-1 6-4 9-9 6-64 37-204 37-161 0-326-68-326-398 0-329 189-378 348-378 132 0 212 56 212 56 3 2 4 6 4 8v368c0 6-5 11-11 11z m1220 304h-136c-6 0-11-5-11-11v-262h-212v262c0 6-5 11-11 11h-136c-6 0-11-5-11-11v-710c0-6 5-11 11-11h136c6 0 11 5 11 11v304h212v-304c0-6 5-11 11-11h136c6 0 11 5 11 11v711c0 6-5 11-11 11z m-1057-16c-48 0-88-40-88-88 0-49 39-88 88-88s88 40 88 88c0 49-39 88-88 88z m78-228c0 6-5 11-11 11h-135c-6 0-12-6-12-13 0 0 0-395 0-470 0-14 9-18 20-18 0 0 58 0 122 0 13 0 17 7 17 18 0 25 0 124 0 143 0 18 0 328 0 328z m1505 10h-135c-6 0-11-5-11-11v-348s-34-25-83-25-62 22-62 70 0 304 0 304c0 6-5 11-11 11h-137c-6 0-11-5-11-11 0 0 0-186 0-327s79-176 187-176c89 0 161 49 161 49s3-26 5-29c1-3 5-6 10-6h87c6 0 11 5 11 11v477c0 6-5 11-11 11z m369 16c-77 0-129-34-129-34v241c0 6-5 11-11 11h-136c-6 0-11-5-11-11v-711c0-6 5-11 11-11 0 0 95 0 95 0 4 0 7 2 10 6 2 4 6 33 6 33s56-53 161-53c124 0 195 63 195 282s-113 247-190 247z m-53-400c-47 1-78 23-78 23v225s31 19 70 23c49 4 95-10 95-126 0-122-21-146-87-144z m-1429 3c-6 0-21-2-37-2-50 0-67 23-67 53s0 200 0 200h102c6 0 11 5 11 11v109c0 6-5 11-11 11h-102v135c0 5-3 8-9 8h-139c-5 0-8-2-8-8v-139s-70-17-74-18c-5-1-8-6-8-11v-87c0-6 5-11 11-11h71s0-91 0-210c0-156 110-171 183-171 34 0 74 11 81 13 4 1 6 6 6 10v96c0 6-5 11-11 11z" glyph-name="logo-github" horiz-adv-x="2856.857" unicode=""/><glyph d="M0 640v-640h896v640h-896z m768-64l-320-264-320 264h640z m-704-64l252-192-252-192v384z m64-448l254 206 66-50 66 50 254-206h-640z m704 64l-252 192 252 192v-384z" glyph-name="mail" horiz-adv-x="896" unicode=""/><glyph d="M576 448h-320v-64h320v64z m-192 128h-128v-64h128v64z m384 27v101h-141l-179 128-179-128h-141v-101l-128-91v-640h896v640l-128 91z m-576 37h512v-245l-256-211-256 211v245z m-128-256l252-192-252-192v384z m64-448l254 206 66-50 66 50 254-206h-640z m704 64l-252 192 252 192v-384z" glyph-name="mail-read" horiz-adv-x="896" unicode=""/><glyph d="M256 576h128v-320h128s0 306 0 384-64 64-64 64h-192v96l-192-160 192-160v96z m320-128v-64h192l-320-256-320 256h192v64h-320v-640h896v640h-320z m-512-128l256-192-256-192v384z m64-448l254 206 66-46 66 46 254-206h-640z m704 64l-256 192 256 192v-384z" glyph-name="mail-reply" horiz-adv-x="896" unicode=""/><glyph d="M853 704h-683c-23 0-42-19-42-42v-683c0-23 19-43 42-43h368v297h-100v116h100v86c0 99 61 153 149 153 42 0 79-3 90-5v-104h-61c-48 0-58-23-58-56v-74h115l-15-116h-100v-297h195c23 0 43 19 43 43v683c0 23-19 42-43 42z" glyph-name="mark-facebook" horiz-adv-x="1024" unicode=""/><glyph d="M512 832c-283 0-512-229-512-512 0-226 147-418 350-486 26-5 35 11 35 25 0 12 0 53-1 95-142-31-172 60-172 60-23 59-57 75-57 75-47 32 4 31 4 31 51-4 78-53 78-53 46-78 120-56 149-43 5 33 18 56 33 68-114 13-233 57-233 253 0 56 20 102 53 137-5 13-23 65 5 136 0 0 43 14 141-53 41 11 85 17 128 17 44 0 87-6 128-17 98 66 141 53 141 53 28-71 10-123 5-136 33-36 53-81 53-137 0-197-120-240-234-253 18-16 35-47 35-95 0-68-1-124-1-141 0-14 9-30 35-25 203 68 350 260 350 486 0 283-229 512-512 512z" glyph-name="mark-github" horiz-adv-x="1024" unicode=""/><glyph d="M609 704h-212c-28 0-58-3-90-10-32-8-64-24-94-49-44-43-66-90-66-142 0-43 15-81 46-114 30-35 73-53 129-53 11 0 22 1 34 2-2-6-4-12-6-18-3-6-4-14-4-23 0-16 3-29 10-40 6-11 13-22 20-32-25-1-56-4-93-9-38-7-74-20-108-39-31-18-52-40-63-64-12-24-18-46-18-66 0-40 18-75 55-104 37-31 92-47 166-48 89 1 157 23 204 64 45 40 68 86 68 137-1 36-9 66-25 88-17 22-36 42-59 61l-36 30c-5 5-11 11-16 18-6 7-10 16-10 28 0 11 3 21 9 30 5 8 11 16 18 22 11 10 21 19 31 29 9 9 17 20 25 31 16 23 24 53 25 91 0 21-2 39-7 55-6 16-12 29-19 40-8 12-15 22-23 31-8 8-16 14-22 18h65l65 38z m-116-580c18-20 26-44 26-71 0-33-13-60-38-82-26-21-64-33-114-33-56 1-100 13-132 37-34 24-51 55-51 92 0 19 4 35 12 49 7 13 15 24 25 32s20 15 30 19 17 7 23 9c23 7 45 12 67 15 22 2 36 3 42 2 9 0 17 0 24-1 40-28 69-51 87-70z m-34 313c-3-14-8-28-17-42-19-19-42-29-70-30-22 0-42 7-59 20-17 14-31 30-42 49-22 42-34 82-34 120-1 29 7 55 23 79 19 23 43 34 72 35 22-1 41-7 58-19 16-13 30-29 40-50 21-43 32-85 32-127 0-10-1-22-2-36z m374-53v114h-64v-114h-114v-64h114v-114h64v114h114v64h-114z" glyph-name="mark-google" horiz-adv-x="1024" unicode=""/><glyph d="M384 702v-345c0-52 43-95 95-95h2c52 0 95 43 95 95v232c112-40 191-147 189-273-2-144-129-275-272-282-164-8-300 123-300 286 0 77 30 146 79 197 29 30 36 85 14 121-31 49-106 58-146 16-91-92-145-222-136-364 14-235 192-421 426-445 290-29 534 202 526 488-7 256-222 457-477 463h-1c-52 0-94-42-94-94z" glyph-name="mark-gravatar" horiz-adv-x="960" unicode=""/><glyph d="M1024 638c-38-17-78-28-121-33 43 26 77 67 92 116-41-24-86-42-133-51-38 41-93 66-153 66-116 0-210-94-210-210 0-16 2-33 5-48-175 9-329 92-433 220-18-31-28-67-28-106 0-73 37-137 93-175-34 1-67 11-95 26 0-1 0-2 0-3 0-102 72-187 169-206-18-5-36-7-55-7-14 0-27 1-40 4 27-83 104-144 196-146-72-56-162-90-261-90-17 0-34 1-50 3 93-60 203-94 322-94 386 0 598 320 598 598 0 9 0 18-1 27 41 30 77 67 105 109z" glyph-name="mark-twitter" horiz-adv-x="1024" unicode=""/><glyph d="M950 640h-876c-41 0-74-33-74-74v-492c0-41 33-74 74-74h876c41 0 74 33 74 74v492c0 41-33 74-74 74z m-374-512h-128v192l-96-123-96 123v-192h-128v384h128l96-128 96 128h128v-384z m191-32l-159 224h96v192h128v-192h96l-161-224z" glyph-name="markdown" horiz-adv-x="1024" unicode=""/><glyph d="M832 800c-130 0-124-130-704-128-71 0-128-115-128-256s57-256 128-256c23 0 43-1 64-1l64-287 192-32 64 96-45 203c243-36 267-107 365-107 106 0 192 172 192 384s-86 384-192 384z m-635-451c-39 1-82 2-128 3-3 20-5 41-5 64 0 88 29 192 64 192 39 0 75 0 109 1-27-47-45-116-45-193 0-23 2-45 5-67z m64-3c-3 22-5 46-5 70 0 80 18 150 47 196 155 8 252 28 319 50-28-67-46-152-46-246 0-40 4-78 10-114-72 19-173 36-324 44z m571-218c-12 0-24 5-35 12-15 67-83 418 117 494 27-53 45-131 45-218 0-159-57-288-128-288z" glyph-name="megaphone" horiz-adv-x="1024" unicode=""/><glyph d="M467 733c-228 28-436-134-464-362s134-436 362-464c71-9 145 1 213 30 24 10 36 39 25 63-10 24-39 36-63 25-52-22-109-30-164-23-175 22-300 181-279 357 22 175 181 300 357 279 175-22 300-181 279-357-4-35-22-56-62-56-43 0-64 46-64 81v126c0 27-21 48-48 48-10 0-19-3-26-8-26 20-57 34-94 38-105 13-201-62-214-167s62-201 167-214c57-7 116 15 158 53 25-28 60-48 100-53 88-11 168 52 178 139 28 228-134 436-362 464z m45-425c-6-53-54-90-107-84s-90 54-84 107 54 90 107 84 90-54 84-107z" glyph-name="mention" horiz-adv-x="832" unicode=""/><glyph d="M617-64c86 19 151 100 151 192 0 58-27 110-68 145 2 15 4 31 4 47 0 105-50 198-128 256l64 64v64l64 64-64 64-64-64h-64l-256-256-128-64v-128l64-64h128l64 128 96 96c56-33 96-90 96-160-106 0-192-86-192-192h-384v-64h192c19-14 42-22 64-32v-96h-128l-128-128h768l-128 128h-23z m-105 192c0 35 29 64 64 64s64-29 64-64-29-64-64-64-64 29-64 64z" glyph-name="microscope" horiz-adv-x="768" unicode=""/><glyph d="M704 640h-704v-256h704l128 128-128 128z m-256-192h-128v128h128v-128z m0 384h-128v-128h128v128z m-128-1024h128v512h-128v-512z" glyph-name="milestone" horiz-adv-x="832" unicode=""/><glyph d="M704 512v-320l192 160-192 160z m-384-320v320l-192-160 192-160z m192 640l-512-256v-768l512 256 512-256v768l-512 256z m448-896l-384 192h-128l-384-192v576l384 192v-128h128v128l384-192v-576z m-576 448v-192h256v192c0 71-57 128-128 128s-128-57-128-128z m192 0h-128c0 35 29 64 64 64s64-29 64-64z" glyph-name="mirror-private" horiz-adv-x="1024" unicode=""/><glyph d="M320 512l-192-192 192-192v128h384v-128l192 192-192 192v-128h-384v128z m192 320l-512-320v-704l512 256 512-256v704l-512 320z m448-896l-384 192v64h-128v-64l-384-192v512l384 256v-256h128v256l384-256v-512z" glyph-name="mirror-public" horiz-adv-x="1024" unicode=""/><glyph d="M640 512h-192v320h-256v-320h-192l320-384 320 384z m-640-704h640v192h-640v-192z" glyph-name="move-down" horiz-adv-x="640" unicode=""/><glyph d="M0 0h192v640h-192v-640z m704 448v192l-384-320 384-320v192h320v256h-320z" glyph-name="move-left" horiz-adv-x="1024" unicode=""/><glyph d="M832 640v-640h192v640h-192z m-512-192h-320v-256h320v-192l384 320-384 320v-192z" glyph-name="move-right" horiz-adv-x="1024" unicode=""/><glyph d="M0 128h192v-320h256v320h192l-320 384-320-384z m0 704v-192h640v192h-640z" glyph-name="move-up" horiz-adv-x="640" unicode=""/><glyph d="M128 448h-128v-256h128l256-192h64v640h-64l-256-192z m736-32l-64 64-96-96-96 96-63-64 95-97-96-96 64-64 96 96 96-96 64 64-96 96 96 96z" glyph-name="mute" horiz-adv-x="896" unicode=""/><glyph d="M416 224l96 96 96-96 64 64-96 96 96 96-64 64-96-96-96 96-63-64 95-97-96-96 64-64z m544 480c-64 0-896 0-896 0-64 0-64-64-64-64v-640s0-64 64-64h896c64 0 64 64 64 64v640s0 64-64 64z m-864-704c-18 0-32 14-32 32s14 32 32 32 32-14 32-32-14-32-32-32z m128 0c-18 0-32 14-32 32s14 32 32 32 32-14 32-32-14-32-32-32z m448 0h-320c-18 0-32 14-32 32s14 32 32 32h320c18 0 32-14 32-32s-14-32-32-32z m128 0c-18 0-32 14-32 32s14 32 32 32 32-14 32-32-14-32-32-32z m128 0c-18 0-32 14-32 32s14 32 32 32 32-14 32-32-14-32-32-32z m32 128h-896v512h896v-512z" glyph-name="mute-video" horiz-adv-x="1024" unicode=""/><glyph d="M896 512v-128h-128v128l-192-192 192-192v128h192s64 0 64 64 0 192 0 192h-128z m-672 32c-124 0-224-100-224-224s100-224 224-224 224 100 224 224-100 224-224 224z m-128-224c0 71 57 128 128 128 19 0 36-4 52-12l-169-169c-7 16-12 34-12 53z m128-128c-19 0-36 4-52 12l169 169c7-16 12-34 12-52 0-71-57-128-128-128z" glyph-name="no-newline" horiz-adv-x="1024" unicode=""/><glyph d="M941 554c8 20 35 102-9 212 0 0-67 21-220-83-64 18-133 20-200 20-68 0-136-3-201-20-152 104-220 83-220 83-44-110-17-192-9-212-52-56-83-127-83-215 0-329 213-404 511-404s513 74 513 404c0 87-32 159-83 215z m-429-555c-211 0-383 10-383 215 0 49 24 95 65 132 69 63 185 30 317 30s249 33 317-30c41-38 65-83 65-132 0-205-172-215-383-215z m-161 321c-42 0-77-51-77-114s34-114 77-114c42 0 77 51 77 114s-34 114-77 114z m322 0c-42 0-77-51-77-114s35-114 77-114 77 51 77 114-34 114-77 114z" glyph-name="octoface" horiz-adv-x="1024" unicode=""/><glyph d="M768 448h-640c-71 0-128-57-128-128v-64c0-47 26-88 64-110v-210h256v-128h256v128h256v210c38 22 64 63 64 110v64c0 71-57 128-128 128z m-512-448h-128v256h-64v64c0 35 29 64 64 64h82c-11-19-18-41-18-64v-128c0-47 26-88 64-110v-82z m320 128v128h-64v-384h-128v384h-64v-128c-35 0-64 29-64 64v128c0 35 29 64 64 64h256c35 0 64-29 64-64v-128c0-35-29-64-64-64z m256 128h-64v-256h-128v82c38 22 64 63 64 110v128c0 23-7 45-18 64h82c35 0 64-29 64-64v-64z m-528 259c35-41 86-67 144-67s109 26 144 67c22-40 63-67 112-67 71 0 128 57 128 128s-57 128-128 128c-26 0-49-8-69-21-20 85-96 149-187 149s-167-64-187-149c-20 13-44 21-69 21-71 0-128-57-128-128s57-128 128-128c48 0 90 27 112 67z m400 125c35 0 64-29 64-64s-29-64-64-64-64 29-64 64 29 64 64 64z m-256 128c71 0 128-57 128-128s-57-128-128-128-128 57-128 128 57 128 128 128z m-256-256c-35 0-64 29-64 64s29 64 64 64 64-29 64-64-29-64-64-64z" glyph-name="organization" horiz-adv-x="896" unicode=""/><glyph d="M480 768l-480-128v-576l480-128 480 128v576l-480 128z m-416-657v433l384-103v-433l-384 102z m0 497l160 43 416-111-160-43-417 111z m833-497l-384-102v433l128 34v-156l128 34v156l129 34v-433z m-128 463l-416 111 128 34 417-111-129-34z" glyph-name="package" horiz-adv-x="1024" unicode=""/><glyph d="M384 832c-212 0-384-172-384-384v-64c0-35 29-64 64-64v-320c0-71 143-128 320-128s320 57 320 128v320c35 0 64 29 64 64v64c0 212-172 384-384 384z m192-640v-32c0-18-14-32-32-32s-32 14-32 32v32c0 18-14 32-32 32s-32-14-32-32v-160c0-18-14-32-32-32s-32 14-32 32v128c0 18-14 32-32 32s-32-14-32-32v-32c0-35-29-64-64-64s-64 29-64 64v64c-35 0-64 29-64 64v115c58-31 151-51 256-51s198 20 256 51v-115c0-35-29-64-64-64z m-192 192c-107 0-199 26-237 64 38 38 130 64 237 64s199-26 237-64c-38-38-130-64-237-64z m0 192c-177 0-320-57-320-128 0 177 143 320 320 320s320-143 320-320c0 71-143 128-320 128z" glyph-name="paintcan" horiz-adv-x="768" unicode=""/><glyph d="M704 768l-128-128 192-192 128 128-192 192z m-704-704l1-193 191 1 512 512-192 192-512-512z m192-128h-128v128h64v-64h64v-64z" glyph-name="pencil" horiz-adv-x="896" unicode=""/><glyph d="M448 640c0 106-86 192-192 192s-192-86-192-192 86-192 192-192 192 86 192 192z m-192-128c-71 0-128 57-128 128s57 128 128 128 128-57 128-128-57-128-128-128z m128-64h-256c-71 0-128-57-128-128v-128c0-71 57-128 128-128v-256h256v256c71 0 128 57 128 128v128c0 71-57 128-128 128z m64-256c0-35-29-64-64-64v128h-64v-384h-128v384h-64v-128c-35 0-64 29-64 64v128c0 35 29 64 64 64h256c35 0 64-29 64-64v-128z" glyph-name="person" horiz-adv-x="512" unicode=""/><glyph d="M448 640c0 106-86 192-192 192s-192-86-192-192 86-192 192-192 192 86 192 192z m-192-128c-71 0-128 57-128 128s57 128 128 128 128-57 128-128-57-128-128-128z m128-64h-256c-71 0-128-57-128-128v-128c0-71 57-128 128-128v-256h256v256c71 0 128 57 128 128v128c0 71-57 128-128 128z m64-256c0-35-29-64-64-64v128h-64v-384h-128v384h-64v-128c-35 0-64 29-64 64v128c0 35 29 64 64 64h256c35 0 64-29 64-64v-128z m320 448v128h-128v-128h-128v-128h128v-128h128v128h128v128h-128z" glyph-name="person-add" horiz-adv-x="896" unicode=""/><glyph d="M128 384h-128v-128h128v-128l192 192-192 192v-128z m640 64h-256c-71 0-128-57-128-128v-128c0-71 57-128 128-128v-256h256v256c71 0 128 57 128 128v128c0 71-57 128-128 128z m64-256c0-35-29-64-64-64v128h-64v-384h-128v384h-64v-128c-35 0-64 29-64 64v128c0 35 29 64 64 64h256c35 0 64-29 64-64v-128z m0 448c0 106-86 192-192 192s-192-86-192-192 86-192 192-192 192 86 192 192z m-192-128c-71 0-128 57-128 128s57 128 128 128 128-57 128-128-57-128-128-128z" glyph-name="person-follow" horiz-adv-x="896" unicode=""/><glyph d="M384 448h-256c-71 0-128-57-128-128v-128c0-71 57-128 128-128v-256h256v256c71 0 128 57 128 128v128c0 71-57 128-128 128z m64-256c0-35-29-64-64-64v128h-64v-384h-128v384h-64v-128c-35 0-64 29-64 64v128c0 35 29 64 64 64h256c35 0 64-29 64-64v-128z m64 448v-128h384v128h-384z m-64 0c0 106-86 192-192 192s-192-86-192-192 86-192 192-192 192 86 192 192z m-192-128c-71 0-128 57-128 128s57 128 128 128 128-57 128-128-57-128-128-128z" glyph-name="person-remove" horiz-adv-x="896" unicode=""/><glyph d="M196 128l64-320 64 320c-20-2-41-3-62-3-23 0-44 1-66 3z m254 299c-16 16-40 44-62 85v64c8 12 12 39 23 52 15 13 24 29 24 45 0 53-61 95-175 95s-182-42-182-95c0-16 8-31 23-44 13-15 23-38 31-53v-64c-32-63-82-96-82-96h1c-32-22-51-48-51-76 0-74 101-148 260-148s260 73 260 148c0 33-26 64-70 88z" glyph-name="pin" horiz-adv-x="519.657" unicode=""/><glyph d="M0 64l384 256-384 256v-512z m768 256l-384 256v-512l384 256z" glyph-name="playback-fast-forward" horiz-adv-x="768" unicode=""/><glyph d="M0 0h192v640h-192v-640z m320 640v-640h192v640h-192z" glyph-name="playback-pause" horiz-adv-x="512" unicode=""/><glyph d="M0 640l512-320-512-320v640z" glyph-name="playback-play" horiz-adv-x="512" unicode=""/><glyph d="M384 320l384-256v512l-384-256z m-384 0l384-256v512l-384-256z" glyph-name="playback-rewind" horiz-adv-x="768" unicode=""/><glyph d="M1003 627l-1 1c-25 25-65 25-90 0l-46-46-91 91 46 46c25 25 25 65 0 90l-1 1c-25 25-65 25-90 0l-48-48c-62 41-147 34-201-20l-25-25c-109-109-122-278-39-401l-4-4c-62-62-62-163 0-226 12-12 13-33 0-46-13-12-33-12-45 0l-89 89c-63 63-165 64-227 1-63-62-63-164 0-226l9-9c25-25 65-25 90 0l1 1c25 25 25 65 0 90l-8 8c-12 12-13 32-1 45s33 13 46 1l89-89c63-63 166-64 228-1 62 62 62 163 0 225-13 13-13 33 0 45l4 4c123-83 292-70 401 39l25 25c55 55 62 139 20 201l48 48c25 25 25 65 0 90z m-114-294c-37-37-98-37-136 0l-226 226c-37 37-37 98 0 136 30 30 74 36 109 19l-42-42c-25-25-25-65 0-90l1-1c25-25 65-25 90 0l46 46 91-91-46-46c-25-25-25-65 0-90l1-1c25-25 65-25 90 0l42 42c17-36 11-80-19-109z" glyph-name="plug" horiz-adv-x="1024" unicode=""/><glyph d="M384 384v256h-128v-256h-256v-128h256v-256h128v256h256v128h-256z" glyph-name="plus" horiz-adv-x="640" unicode=""/><glyph d="M320 832c-64 0-64-64-64-64v-64h-64l-192-192v-128h192l64-384-128-64v-64h512v64l-128 64 64 384h192v128l-192 192h-256v64h32c18 0 32 14 32 32s-14 32-32 32h-32z m0-832l-53 320h118l-1-320h-64z m-224 512l128 128h32v-64h64v64h224l128-128h-576z" glyph-name="podium" horiz-adv-x="768" unicode=""/><glyph d="M0 320c0 142 115 256 256 256s256-115 256-256-115-256-256-256-256 115-256 256z" glyph-name="primitive-dot" horiz-adv-x="511.825" unicode=""/><glyph d="M512 64h-512v512h512v-512z" glyph-name="primitive-square" horiz-adv-x="512" unicode=""/><glyph d="M736 320l-173 166-141-198-70 442-200-410h-152v-128h230l58 115 58-346 230 326 102-96h218v128h-160z" glyph-name="pulse" horiz-adv-x="896" unicode=""/><glyph d="M756 257c-14 10-29 17-43 20-9 2-18 2-28 2-9-1-18-2-26-4-6-2-12-4-18-7-18-8-34-18-47-30-12-13-22-29-30-47-3-6-5-12-7-18-2-8-3-17-4-26-1-10 0-19 2-28 3-15 10-30 20-43 4-5 8-10 13-15 20-20 46-31 75-34 9-1 18-2 27-4 5-2 9-4 12-7 7-7 8-16 3-27-3-7-8-13-13-19l-3-3c-4-4-6-6-7-7-3-3-6-6-9-9l-3-3c-11-11-21-21-32-32-23-23-46-46-68-68-8-8-15-15-23-22-3-3-7-6-11-9-2-1-3-2-5-3-20-10-41-6-59 12-5 5-11 11-16 16-30 30-60 61-91 91-9 9-17 17-26 26-6 6-13 12-20 17-6 4-12 8-17 10-21 7-41 2-55-13-4-5-7-10-9-17-3-9-5-19-6-29-5-38-26-68-56-83-7-4-15-6-24-8-8-1-16-2-24-1-27 1-49 13-69 33-2 2-2 2-3 3-19 19-31 42-33 69-1 8 0 16 1 24s4 16 8 24c14 30 45 51 83 56 10 1 20 2 29 6 7 3 13 6 18 10 15 13 20 33 13 52-3 7-6 13-10 19-5 7-11 13-17 20-9 9-17 17-26 26-27 27-54 54-81 81l-10 10c-5 5-10 10-15 15-18 18-22 40-12 60 1 2 2 3 3 5 2 4 5 7 9 11 7 8 15 15 22 23 23 23 46 46 68 68 11 11 21 21 32 32l3 3c3 3 6 6 9 9 1 1 3 3 7 7l3 3c5 5 12 10 19 13 11 5 21 4 27-3 3-3 5-7 7-12 3-8 3-18 4-27 3-30 14-55 34-75 4-4 9-9 15-13 14-10 29-17 43-20 9-2 18-2 28-2 9 1 18 2 26 4 6 2 12 4 18 7 18 8 34 18 47 30 12 13 22 29 30 47 3 6 5 12 7 18 2 8 3 17 4 26 1 10 0 19-2 28-3 15-10 30-20 43-4 5-8 10-13 15-20 20-46 31-75 34-9 1-18 2-27 4-5 2-9 4-12 7-7 7-8 16-3 27 3 7 8 13 13 19l3 3c4 4 6 6 7 7 3 3 6 6 9 9l3 3c11 11 21 21 32 32 23 23 46 46 68 68 8 8 15 15 23 22 3 3 7 6 11 9 2 1 3 2 5 3 20 10 41 6 59-12 5-5 11-11 16-16 30-30 60-61 91-91 9-9 17-17 26-26 6-6 13-12 20-17 6-4 12-8 17-10 21-7 41-2 55 13 4 5 7 10 9 17 3 9 5 19 6 29 5 38 26 68 56 83 7 4 15 6 24 8 8 1 16 2 24 1 27-1 49-13 69-33 2-2 2-2 3-3 19-19 31-42 33-69 1-8 0-16-1-24s-4-16-8-24c-14-30-45-51-83-56-10-1-20-2-29-6-7-3-13-6-18-10-15-13-20-33-13-52 3-7 6-13 10-19 5-7 11-13 17-20 9-9 17-17 26-26 30-30 61-61 91-91 5-5 10-10 15-15 18-18 22-40 12-60-1-2-2-3-3-5-2-4-5-7-9-11-7-8-15-15-22-23-23-23-46-46-68-68-11-11-21-21-32-32l-3-3c-3-3-6-6-9-9-1-1-3-3-7-7l-3-3c-5-5-12-10-19-13-11-5-21-4-27 3-3 3-5 7-7 12-3 8-3 18-4 27-3 30-14 55-34 75-4 4-9 9-15 13z" glyph-name="puzzle" horiz-adv-x="1024" unicode=""/><glyph d="M448 64h128v128h-128v-128z m64 512s-192 0-192-192c8-1 128 0 128 0s0 64 64 64 64-64 64-64c0-64-130-64-130-128h130s128 0 128 160-192 160-192 160z m0 256c-283 0-512-229-512-512s229-512 512-512 512 229 512 512-229 512-512 512z m0-896c-212 0-384 172-384 384s172 384 384 384 384-172 384-384-172-384-384-384z" glyph-name="question" horiz-adv-x="1024" unicode=""/><glyph d="M0 320v-256h256v256h-128s0 128 128 128v128s-256 0-256-256z m640 128v128s-256 0-256-256v-256h256v256h-128s0 128 128 128z" glyph-name="quote" horiz-adv-x="640" unicode=""/><glyph d="M307 441c16 16 16 43 0 59-21 21-31 48-31 76s10 55 31 76c16 16 16 43 0 59-8 8-18 12-29 12-10 0-21-4-29-12-36-37-55-86-55-135s18-98 55-135c16-16 42-16 57 0z m-158 358c-8 8-19 12-29 12-11 0-21-4-29-12-60-61-90-142-90-222s30-161 90-222c16-17 42-17 59 0 16 17 16 44 0 60-44 45-65 103-65 162s22 117 65 162c16 17 16 44 0 60z m364-327c57 0 104 47 104 104s-47 104-104 104-104-47-104-104 47-104 104-104z m421 326c-16 17-42 17-58 0s-16-44 0-60c44-45 65-103 65-162s-22-117-65-162c-16-17-16-44 0-60 8-8 19-12 29-12 11 0 21 4 29 12 60 61 90 142 90 222s-30 161-90 222z m-420-409c-26 0-53 6-77 19l-201-536h95l55 64h256l54-64h95l-201 536c-24-13-50-19-76-19z m-1-31l64-230h-128l64 230z m-128-358l64 64h128l64-64h-256z m332 711c-16-16-16-43 0-59 20-21 31-49 31-76 0-28-10-55-31-76-16-16-16-43 0-59 8-8 18-12 29-12 10 0 21 4 29 12 36 37 55 86 55 135s-18 98-55 135c-16 16-42 16-57 0z" glyph-name="radio-tower" horiz-adv-x="1024" unicode=""/><glyph d="M448-128c-247 0-448 201-448 448s201 448 448 448 448-201 448-448-201-448-448-448z m0 768c-177 0-320-143-320-320s143-320 320-320 320 143 320 320-143 320-320 320z m107-509l-107 107-107-107-83 83 107 107-107 107 83 83 107-107 107 107 83-83-107-107 107-107-83-83z" glyph-name="remove-close" horiz-adv-x="896" unicode=""/><glyph d="M320 576h-64v-64h64v64z m0 128h-64v-64h64v64z m384 128h-640s-64 0-64-64v-768c0-64 64-64 64-64h128v-128l96 96 96-96v128h320s64 1 64 64v768c0 64-64 64-64 64z m0-768c0-62-64-64-64-64h-256v64h-192v-64h-64c-64 0-64 64-64 64v64h640v-64z m0 128h-512v576h513l-1-576z m-384 128h-64v-64h64v64z m0 128h-64v-64h64v64z" glyph-name="repo" horiz-adv-x="768" unicode=""/><glyph d="M384 384l128 160-128 160v-320z m-64 64h-64v-64h64v64z m-128 320h256v64h-384s-64 1-64-64c0-293 0-768 0-768 0-10 3-64 64-64h128v-128l96 96 96-96v128h318c67 0 66 64 66 64v192h-576v576z m512-640s0-32 0-64c0-62-66-64-66-64s-124 0-254 0v64h-192v-64h-66c-64 0-62 64-62 64v64h640z m-384 448h-64v-64h64v64z m-64-320h64v64h-64v-64z m704 576h-320s-64 0-64-64v-384c0-64 64-64 64-64h64v-64l32 32 32-32v64h192s64 0 64 64v384c0 64-64 64-64 64z m-256-448s0 0-32 0-32 32-32 32v32h64v-64z m256 32s0-32-32-32-160 0-160 0v64h192v-32z m0 96h-256v256h224s32 0 32-32 0-224 0-224z m-640 192h-64v-64h64v64z" glyph-name="repo-clone" horiz-adv-x="1024" unicode=""/><glyph d="M768 704v128h-128v-128h-128v-128h128v-128h128v128h128v128h-128z m-384-256h-64v-64h64v64z m0 256h-64v-64h64v64z m384-512h-512v576h256v64h-384s-64 0-64-64v-768c0-64 64-64 64-64h128v-128l96 96 96-96v128h320s64 1 64 64v384h-64v-192z m0-128c0-62-64-64-64-64h-256v64h-192v-64h-64c-64 0-64 64-64 64v64h640v-64z m-448 192h64v64h-64v-64z m64 320h-64v-64h64v64z" glyph-name="repo-create" horiz-adv-x="896" unicode=""/><glyph d="M512 704v-128h384v128h-384z m-128-256h-64v-64h64v64z m0 256h-64v-64h64v64z m384-512h-512v576h576s0 64-64 64h-640s-64 0-64-64v-768c0-64 64-64 64-64h128v-128l96 96 96-96v128h320s64 1 64 64v512h-64v-320z m0-128c0-62-64-64-64-64h-256v64h-192v-64h-64c-64 0-64 64-64 64v64h640v-64z m-448 192h64v64h-64v-64z m64 320h-64v-64h64v64z" glyph-name="repo-delete" horiz-adv-x="896" unicode=""/><glyph d="M768 768c-2 64-64 64-64 64h-640s-64 1-64-64c0-293 0-768 0-768 0-10 3-64 64-64h128v-128l128 128v128h-128v-64h-66c-64 0-62 64-62 64v64h256v64h-128v576h512v-576h-128v-64h128s0-32 0-64c0-62-66-64-66-64s-25 0-62 0v-64h126c67 0 66 64 66 64v768z m-272-320h144l-192 256-192-256h144l-144-192h128v-448h128v448h128l-144 192z" glyph-name="repo-force-push" horiz-adv-x="767.896" unicode=""/><glyph d="M384 256h128v128l128 128v192h-128v-128l-64-64-64 64v128h-128v-192l128-128v-128z m320 576h-640c-64 0-64-64-64-64v-768s0-64 64-64h128v-128l96 96 96-96v128h320c64 0 64 64 64 64v768s0 64-64 64z m0-768s0-64-64-64h-256v64h-192v-64h-64c-64 0-64 64-64 64v64h640v-64z m0 128h-512v576h512v-576z" glyph-name="repo-forked" horiz-adv-x="768" unicode=""/><glyph d="M1024 512l-192 192v-128h-384v-128h384v-128l192 192z m-320-320h-512v576h512v-128h64v128c0 64-64 64-64 64h-640s-64 0-64-64v-768c0-64 64-64 64-64h128v-128l96 96 96-96v128h320s64 1 64 64v384h-64v-192z m0-128c0-62-64-64-64-64h-256v64h-192v-64h-64c-64 0-64 64-64 64v64h640v-64z m-384 512h-64v-64h64v64z m0 128h-64v-64h64v64z m0-256h-64v-64h64v64z m-64-192h64v64h-64v-64z" glyph-name="repo-pull" horiz-adv-x="1024" unicode=""/><glyph d="M448 512l-192-256h128v-448h128v448h128l-192 256z m-192 0h64v64h-64v-64z m64 192h-64v-64h64v64z m384 128h-640s-64 0-64-64v-768c0-64 64-64 64-64h128v-128l128 128v128h-128v-64h-64c-64 0-64 64-64 64v64h256v64h-128v576h513l-1-576h-128v-64h128v-64c0-62-64-64-64-64h-64v-64h128s64 1 64 64v768c0 64-64 64-64 64z" glyph-name="repo-push" horiz-adv-x="768" unicode=""/><glyph d="M254 768h512v-64h64v64c-2 64-64 64-64 64h-640s-64 1-64-64c0-293 0-768 0-768 0-10 3-64 64-64h128v-128l96 96 96-96v128h318c67 0 66 64 66 64v192h-576v576z m512-640s0-32 0-64c0-62-66-64-66-64s-124 0-254 0v64h-192v-64h-66c-64 0-62 64-62 64v64h640z m0 448v64h-192v-128h-98l130-166 130 166h-98v64h128z m96-26l-130-166h98v-64h-128v-64h192v128h98l-130 166z m-480 154h-64v-64h64v64z m0-128h-64v-64h64v64z m-64-320h64v64h-64v-64z m64 192h-64v-64h64v64z" glyph-name="repo-sync" horiz-adv-x="1024" unicode=""/><glyph d="M717 708c-72-42-148-96-218-167-45-45-81-89-110-130l-178-33-209-210 187-6 132 132c-46-96-51-160-51-160l59-59s66 6 163 53l-134-134 6-187 210 210 33 179c41 29 85 65 130 110 70 70 125 147 167 218-46 9-88 28-121 62-33 33-53 76-62 121z m69 37c5-45 20-81 45-106s61-40 106-45c66 133 87 238 87 238s-104-21-238-87z" glyph-name="rocket" horiz-adv-x="1024" unicode=""/><glyph d="M128 192c-71 0-128-57-128-128s57-128 128-128 128 57 128 128-57 128-128 128z m0 256s-64-2-64-64 64-64 64-64c141 0 256-115 256-256 0 0 0-64 64-64s64 64 64 64c0 212-172 384-384 384z m0 256s-64 0-64-64 64-64 64-64c283 0 512-229 512-512 0 0 0-64 64-64s64 64 64 64c0 353-287 640-640 640z" glyph-name="rss" horiz-adv-x="768" unicode=""/><glyph d="M768 704h-512l-256-256 512-512 512 512-256 256z m-640-256l192 192h384l192-192-384-384-384 384z m576 128h-192v-448l320 320-128 128z" glyph-name="ruby" horiz-adv-x="1024" unicode=""/><glyph d="M128 64h640v512h-640v-512z m128 384h384v-256h-384v256z m-192 192h192v64h-256v-256h64v192z m0-448h-64v-256h256v64h-192v192z m576 512v-64h192v-192h64v256h-256z m192-704h-192v-64h256v256h-64v-192z" glyph-name="screen-full" horiz-adv-x="895.875" unicode=""/><glyph d="M128 640h-128v-64h192v192h-64v-128z m-128-640h128v-128h64v192h-192v-64z m768 640v128h-64v-192h192v64h-128z m-64-768h64v128h128v64h-192v-192z m-512 256h512v384h-512v-384z m128 256h256v-128h-256v128z" glyph-name="screen-normal" horiz-adv-x="896" unicode=""/><glyph d="M960 0l-249 249c36 58 57 126 57 199 0 212-172 384-384 384s-384-172-384-384 172-384 384-384c73 0 141 22 199 57l249-249c18-18 47-17 64 0l64 64c18 18 18 47 0 64z m-576 192c-141 0-256 115-256 256s115 256 256 256 256-115 256-256-115-256-256-256z" glyph-name="search" horiz-adv-x="973.125" unicode=""/><glyph d="M448 640h-128v-128h-128v-128h128v-128h128v128h128v128h-128v128z m512-640l-249 249c36 58 57 126 57 199 0 212-172 384-384 384s-384-172-384-384 172-384 384-384c73 0 141 22 199 57l249-249c18-18 47-17 64 0l64 64c18 18 18 47 0 64z m-576 192c-141 0-256 115-256 256s115 256 256 256 256-115 256-256-115-256-256-256z" glyph-name="search-save" horiz-adv-x="1024" unicode=""/><glyph d="M0 704v-128s2-64 64-64 577 0 640 0 64 64 64 64v128s-1 64-64 64-588 0-640 0c-65 0-64-64-64-64z m0-320v-128s2-64 64-64 577 0 640 0 64 64 64 64v128s-1 64-64 64-588 0-640 0c-65 0-64-64-64-64z m0-320v-128s2-64 64-64 577 0 640 0 64 64 64 64v128s-1 64-64 64-588 0-640 0c-65 0-64-64-64-64z m64 192v128h64v-128h-64z m128 0v128h64v-128h-64z m128 0v128h64v-128h-64z m128 0v128h64v-128h-64z m192 64v64h64v-64h-64z m-576 256v128h64v-128h-64z m128 0v128h64v-128h-64z m128 0v128h64v-128h-64z m128 0v128h64v-128h-64z m192 64v64h64v-64h-64z m-576-704v128h64v-128h-64z m128 0v128h64v-128h-64z m128 0v128h64v-128h-64z m128 0v128h64v-128h-64z m192 64v64h64v-64h-64z" glyph-name="server" horiz-adv-x="768" unicode=""/><glyph d="M64-64h128v192h-128v-192z m128 768h-128v-320h128v320z m320 0h-128v-128h128v128z m-512-512h256v128h-256v-128z m384-256h128v384h-128v-384z m-64 448h256v128h-256v-128z m512 320h-128v-384h128v384z m-192-448v-128h256v128h-256z m64-320h128v128h-128v-128z" glyph-name="settings" horiz-adv-x="896" unicode=""/><glyph d="M448 576l-256 256-192-192 311-300c6 21 13 40 20 56 20 48 56 118 113 175l5 6z m128 256l133-133-197-197c-46-46-75-103-92-143s-36-101-36-166v-384h256v384c0 36 27 102 53 128l197 197 133-133v448h-448z" glyph-name="split" horiz-adv-x="1024" unicode=""/><glyph d="M768 768c-141 0-256-84-256-187 0-124 32-194 0-389 0 288-177 406-256 406 3 32-31 42-31 42s-14-7-19-22c-17 20-36 18-36 18l-8-37s-117-41-119-206c14-22 99-39 159-28 57-3 43-51 30-63-54-54-104 19-168 19s-64-64 0-64 64-64 192-64c-198-77 0-256 0-256h-64c-64 0-64-64-64-64s256 0 384 0c192 0 320 64 320 222 0 54-28 115-64 162-71 93 14 171 64 128s192-64 192 128c0 141-115 256-256 256z m-608-320c-18 0-32 14-32 32s14 32 32 32 32-14 32-32-14-32-32-32z" glyph-name="squirrel" horiz-adv-x="1024" unicode=""/><glyph d="M896 448l-314 41-135 279-135-279-313-41 230-209-59-303 277 149 277-149-60 303 231 209z" glyph-name="star" horiz-adv-x="896" unicode=""/><glyph d="M896 450z m-256-66v98l-69 30h-59v123l-64 133-135-279-313-41 230-209-58-303 275 147 275-147-58 303 166 145h-192z m192 320v128h-128v-128h-128v-128h128v-128h128v128h128v128h-128z" glyph-name="star-add" horiz-adv-x="960" unicode=""/><glyph d="M576 448l-64 128v64l-64 128-135-279-313-41 230-209-58-303 275 149 275-149-58 303 166 145-256 64z m358 294l-64 64-102-102-103 105-64-67 102-102-102-102 64-64 102 102 102-102 64 64-102 102 102 102z" glyph-name="star-delete" horiz-adv-x="934.375" unicode=""/><glyph d="M136 768c-75 0-136-100-136-224 0-69 17-142 34-255 13-88 46-161 102-161s94 49 94 138c0 30-25 79-26 120-2 74 50 104 50 173 0 124-43 209-118 209z m367-256c-75 0-118-85-118-209 0-69 52-99 50-173-1-41-26-90-26-120 0-89 38-138 94-138s89 73 102 161c17 113 34 186 34 255 0 124-61 224-136 224z" glyph-name="steps" horiz-adv-x="640" unicode=""/><glyph d="M704 832h-384l-320-320v-384l320-320h384l320 320v384l-320 320z m192-640l-256-256h-256l-256 256v256l256 256h256l256-256v-256z m-448 64h128v320h-128v-320z m0-192h128v128h-128v-128z" glyph-name="stop" horiz-adv-x="1024" unicode=""/><glyph d="M655 359c12-82-13-168-77-231-94-93-240-104-346-35l75 73-275 38 38-269 84 81c151-111 365-101 502 35 80 78 116 183 111 285l-112 22z m-466 153c94 93 239 104 346 35l-75-73 275-38-38 269-84-81c-151 111-365 101-502-35-79-78-116-183-111-285l112-22c-12 82 13 168 77 231z" glyph-name="sync" horiz-adv-x="768.051" unicode=""/><glyph d="M384 768h-256l-128-128v-256l512-512 384 384-512 512z m-320-352v192l96 96h192l448-448-288-288-448 448z m384 96l-192-192 256-256 192 192-256 256z m-96-192l96 96 160-160-96-96-160 160z m-32 224c0 53-43 96-96 96s-96-43-96-96 43-96 96-96 96 43 96 96z m-96-32c-18 0-32 14-32 32s14 32 32 32 32-14 32-32-14-32-32-32z" glyph-name="tag" horiz-adv-x="896" unicode=""/><glyph d="M736 320l64-64-288-288-448 448v192l96 96h186l102-96v96l-64 64h-256l-128-128v-256l512-512 384 384-64 64h-96z m32 320v128h-128v-128h-128v-128h128v-128h128v128h128v128h-128z m-544 0c-53 0-96-43-96-96s43-96 96-96 96 43 96 96-43 96-96 96z m0-128c-18 0-32 14-32 32s14 32 32 32 32-14 32-32-14-32-32-32z m480-256l-256 256-192-192 256-256 192 192z m-256 160l160-160-96-96-160 160 96 96z" glyph-name="tag-add" horiz-adv-x="896" unicode=""/><glyph d="M672 384l128-128-288-288-448 448v192l96 96h192l160-160v96l-128 128h-256l-128-128v-256l512-512 384 384-128 128h-96z m32-128l-256 256-192-192 256-256 192 192z m-256 160l160-160-96-96-160 160 96 96z m-224 224c-53 0-96-43-96-96s43-96 96-96 96 43 96 96-43 96-96 96z m0-128c-18 0-32 14-32 32s14 32 32 32 32-14 32-32-14-32-32-32z m713 231l-67 67-103-103-103 103-67-67 103-103-103-103 67-67 103 103 103-103 67 67-103 103 103 103z" glyph-name="tag-remove" horiz-adv-x="937" unicode=""/><glyph d="M78 407l1 3 226 58c-1-6-2-19-2-19 0-128 128-128 128-128s128 0 128 128c0 11-8 22-19 32l49-3s7 2 31 8c-51-14-108 31-126 99s8 135 60 149c-24-6-31-8-31-8l-168-110c-34-9-55-46-46-80 2-9 7-17 12-23-7-12-12-26-15-40-27 1-51 19-59 46-9 34 11 69 45 78l-245-65c-34-9-54-43-45-77s41-57 76-48z m417-151h-128v-64l-320-320h128l192 128v-128h128v128l192-128h128l-320 320v64z m429 448c-18 68-70 110-122 96-69-18-98-28-186-51-51-14-79-80-61-148s74-115 125-102c87 23 117 33 186 51 51 14 76 85 58 154z m-70-90c-17-5-41 19-50 53l-1-2c-9 34-4 66 13 70s42-17 51-51 4-66-13-70z" glyph-name="telescope" horiz-adv-x="929.875" unicode=""/><glyph d="M831 705h-768c-35 0-64-29-64-64v-640c0-35 29-64 64-64h768c35 0 64 29 64 64v640c0 35-29 64-64 64z m-704-448l128 128-128 128 64 64 192-192-192-192-64 64z m512-64h-256v64h256v-64z" glyph-name="terminal" horiz-adv-x="896" unicode=""/><glyph d="M0 640v-128h640v128h-640z m0-384h640v128h-640v-128z m0-256h640v128h-640v-128z" glyph-name="three-bars" horiz-adv-x="640" unicode=""/><glyph d="M287 367c17-17 82-85 82-85l36 37-56 58 108 115s-49 48-27 29c20 76 2 161-56 220-57 59-138 79-211 58l124-128-33-125-121-33-124 128c-20-75-1-159 56-219 60-62 147-80 222-55z m412-124l-149-147 246-255c20-21 46-31 73-31 26 0 53 10 73 31 40 42 40 109 0 151l-242 251z m325 427l-157 162-462-477 56-58-276-286-63-34-89-146 23-24 141 92 33 65 276 286 56-58 462 477z" glyph-name="tools" horiz-adv-x="1024" unicode=""/><glyph d="M704 704h-256s0 24 0 32c0 18-14 32-32 32s-32-14-32-32 0-32 0-32h-256c-35 0-64-29-64-64v-64c0-35 29-64 64-64v-576c0-35 29-64 64-64h448c35 0 64 29 64 64v576c35 0 64 29 64 64v64c0 35-29 64-64 64z m-64-736c0-18-14-32-32-32h-384c-18 0-32 14-32 32v544h64v-480c0-18 14-32 32-32s32 14 32 32v480h64v-480c0-18 14-32 32-32s32 14 32 32v480h64v-480c0-18 14-32 32-32s32 14 32 32v480h64v-544z m64 624c0-9-7-16-16-16h-544c-9 0-16 7-16 16v32c0 9 7 16 16 16h544c9 0 16-7 16-16v-32z" glyph-name="trashcan" horiz-adv-x="768" unicode=""/><glyph d="M0 448l384-384 384 384h-768z" glyph-name="triangle-down" horiz-adv-x="767.5" unicode=""/><glyph d="M0 320l384-384v768l-384-384z" glyph-name="triangle-left" horiz-adv-x="383.75" unicode=""/><glyph d="M0 704l384-384-384-384v768z" glyph-name="triangle-right" horiz-adv-x="383.875" unicode=""/><glyph d="M384 576l-384-384h768l-384 384z" glyph-name="triangle-up" horiz-adv-x="767.5" unicode=""/><glyph d="M384 448h128v192h128l-192 192-192-192h128v-192z m192 128v-64h224l-128-128h-448l-128 128h224v64h-320v-64l160-160-160-160v-64h320v64h-224l128 128h448l128-128h-224v-64h320v64l-160 160 160 160v64h-320z m-64-320h-128v-192h-128l192-192 192 192h-128v192z" glyph-name="unfold" horiz-adv-x="896" unicode=""/><glyph d="M128 448h-128v-256h128l256-192h64v640h-64l-256-192z m411-37c-12 12-33 12-45 0s-12-33 0-45c25-25 25-66 0-91-12-12-12-33 0-45s33-12 45 0c50 50 50 131 0 181z m91 91c-12 12-33 12-45 0s-12-33 0-45c75-75 75-197 0-272-12-12-12-33 0-45s33-12 45 0c100 100 100 262 0 362z m91 91c-12 12-33 12-45 0s-12-33 0-45c125-125 125-328 0-453-12-12-12-33 0-45s33-12 45 0c150 150 150 393 0 543z" glyph-name="unmute" horiz-adv-x="896" unicode=""/><glyph d="M960 704c-64 0-896 0-896 0-64 0-64-64-64-64v-640s0-64 64-64h896c64 0 64 64 64 64v640s0 64-64 64z m-864-704c-18 0-32 14-32 32s14 32 32 32 32-14 32-32-14-32-32-32z m128 0c-18 0-32 14-32 32s14 32 32 32 32-14 32-32-14-32-32-32z m448 0h-320c-18 0-32 14-32 32s14 32 32 32h320c18 0 32-14 32-32s-14-32-32-32z m128 0c-18 0-32 14-32 32s14 32 32 32 32-14 32-32-14-32-32-32z m128 0c-18 0-32 14-32 32s14 32 32 32 32-14 32-32-14-32-32-32z m32 128h-896v512h896v-512z m-576 448v-384l256 192-256 192z" glyph-name="unmute-video" horiz-adv-x="1024" unicode=""/><glyph d="M0 128h128v64h-64v256h64v64h-128v-384z m384 512v-640h512v640h-512z m384-512h-256v384h256v-384z m-576-64h128v64h-64v384h64v64h-128v-512z" glyph-name="versions" horiz-adv-x="896" unicode=""/><glyph d="M640 512l-128 128-192-192-192 192-128-128 192-192-192-192 128-128 192 192 192-192 128 128-192 192 192 192z" glyph-name="x" horiz-adv-x="640" unicode=""/><glyph d="M640 384h-256l192 448-576-576h256l-192-448 576 576z" glyph-name="zap" horiz-adv-x="640" unicode="⚡"/></font>
</defs>
</svg>
